<svg width="24" height="24" viewBox="0 0 24 24" fill="none" xmlns="http://www.w3.org/2000/svg">
    <path fill-rule="evenodd" clip-rule="evenodd" d="M7.25 5a3.75 3.75 0 0 1 2.304 6.71l-.056.04.056.04a3.744 3.744 0 0 1 1.44 2.76l.006.2a3.75 3.75 0 0 1-3.55 3.745l-.2.005h-4.5a.75.75 0 0 1-.743-.648L2 17.75v-12a.75.75 0 0 1 .648-.743L2.75 5h4.5zM3.5 12.5V17h3.75a2.25 2.25 0 0 0 2.245-2.096l.005-.154a2.25 2.25 0 0 0-2.096-2.245L7.25 12.5H3.5zM7.28 11H3.5V6.5h3.75l.154.005a2.25 2.25 0 0 1 0 4.49L7.28 11zm14.22 1.75a4.25 4.25 0 0 0-8.5 0v2l.007.102.034.206a4.25 4.25 0 0 0 8.029 1.009.75.75 0 0 0-1.36-.634 2.75 2.75 0 0 1-2.902 1.559l-.18-.033a2.75 2.75 0 0 1-2.104-2.132l-.024-.134V13.5h6.25l.102-.007a.75.75 0 0 0 .648-.743zm-6.88-.808A2.751 2.751 0 0 1 17.25 10l.168.005a2.752 2.752 0 0 1 2.461 1.937l.016.058h-5.291l.017-.058zM19.5 5.75a.75.75 0 0 0-.75-.75h-3l-.102.007A.75.75 0 0 0 15.75 6.5h3l.102-.007a.75.75 0 0 0 .648-.743z" fill="#212121"/>
</svg>
