<svg width="40" height="46" viewBox="0 0 40 46" fill="none" xmlns="http://www.w3.org/2000/svg">
    <path fill-rule="evenodd" clip-rule="evenodd" d="M25.38 3.342a6 6 0 0 0-10.76 0A4 4 0 0 0 10 9.646v3.765A10.96 10.96 0 0 0 9 18c0 2.157.621 4.17 1.694 5.868l.072.135-.332.012C4.621 24.314 0 29.116 0 35v9.009l.005.148A1.993 1.993 0 0 0 1.997 46h36.006l.149-.005A1.992 1.992 0 0 0 40 44.009V35l-.004-.29c-.151-5.86-4.886-10.58-10.762-10.707l.072-.135A10.948 10.948 0 0 0 31 18a10.96 10.96 0 0 0-1-4.588l.001-3.767a4 4 0 0 0-4.62-6.303zM11.819 14.245 11.93 14H28.07l.113.248.153.352A8.969 8.969 0 0 1 29 18c0 1.77-.51 3.46-1.456 4.91l-1.969 3.018.905.019A9.466 9.466 0 0 1 21 28.448V27.5h-3.5l-.2.005c-.38.019-.746.09-1.092.208a9.538 9.538 0 0 1-4.598-4.252l.846-.551-.184-.294A8.95 8.95 0 0 1 11 18a8.96 8.96 0 0 1 .818-3.755zm3.29 14.048a10.55 10.55 0 0 1-4.087-3.847L11.029 26l-.02-.001c-4.887.001-8.865 3.887-9.005 8.736L2 35l-.001 8.935L2 44h11.5V31.492c0-1.309.633-2.47 1.608-3.199zM14.5 44.001h23.43L38 44v-8.973l-.003-.264c-.122-4.713-3.868-8.521-8.557-8.751L29.18 26l-1.33-.026A10.474 10.474 0 0 1 20 29.5c-1.338 0-2.618-.25-3.795-.707a2.996 2.996 0 0 0-1.7 2.524l-.005.175v12.509zM12 13h16v-2.645c-.258.077-.528.125-.808.14L27 10.5v-1c.356 0 .695-.074 1.001-.208v-.403l.5-.567a2 2 0 0 0-2.155-3.213l-.152.06-1.754.78-.852-1.72a4 4 0 0 0-7.074-.19l-.1.19-.85 1.72-1.754-.779a2 2 0 0 0-2.424 3.011l.113.141.5.567v.403c.26.113.541.184.837.203L13 9.5v1a3.5 3.5 0 0 1-1-.145V13zm4.5-5c0 1.344 1.54 2.5 3.5 2.5 1.89 0 3.39-1.075 3.494-2.357L23.5 8h1c0 1.97-2.04 3.5-4.5 3.5-2.385 0-4.376-1.44-4.494-3.322L15.5 8h1zM19 32v1h-1v-1h1zm0 4v-1h-1v1h1zm0 2v1h-1v-1h1zm0 4v-1h-1v1h1z" fill="#212121"/>
</svg>
