<svg width="43" height="42" viewBox="0 0 43 42" fill="none" xmlns="http://www.w3.org/2000/svg">
    <path fill-rule="evenodd" clip-rule="evenodd" d="m30.594 0-.151.406-.143.406-.17.511-.121.39-.187.644-.122.459-.115.476a14.055 14.055 0 0 0-.32 1.949c.34-.176.538-.235.697-.235.074 0 .14.013.206.032l.3.1c.15.044.34.086.618.099l.179.004a7.38 7.38 0 0 1 4.25 1.336c.166-.14.335-.28.509-.416 2.065-1.627 4.3-2.638 6.641-2.726L43 3.429v1c-2.205 0-4.355.94-6.357 2.517-.114.09-.226.18-.336.272a7.146 7.146 0 0 1 2.29 5.242c0 2.236-1.032 4.235-2.655 5.56.722.356.958 1.113.986 1.82l.003.151h5.06c0 4.344-4.726 11.5-12.726 14.125-1.72 0-2.58.78-2.973 1.334l-.105.159c-.015.025-.03.049-.042.072l-.067.127-.078.183h2.96c1.78 0 3.875.847 4.013 2.54l.007.179v3.281H8.931V38.71c0-1.752 2.017-2.658 3.815-2.716l.185-.003h3l-.009-.116-.016-.101-.028-.125-.044-.144-.064-.158c-.249-.542-.883-1.231-2.5-1.231C5.403 31.534.175 24.396.005 20.198L0 19.991h5.016l-.263-.718-.103-.294c-.344-1.036-.501-2.14.615-3.238 1.412-1.39 2.825-2.045 3.842-2.352l.307-.086c.049-.013.096-.025.143-.035l.262-.057.23-.04.174-.025.193-.02.182-.01-.093-.298-.095-.338-.071-.28-.074-.315-.072-.345-.034-.181-.061-.376c-.167-1.148-.167-2.46.5-3.117 1.919-1.889 3.744-2.39 5.327-2.39.836 0 1.605.14 2.285.288l.824.186c.428.095.807.166 1.128.166.51 0 .875-.178 1.06-.73l.043-.145c.73-2.879 3.566-4.179 5.979-4.766l.46-.105c.076-.016.151-.032.226-.046l.437-.081c.072-.013.142-.024.211-.035l.405-.06.378-.048.508-.052.293-.023.432-.025zm4.25 8.59a5.16 5.16 0 0 1 1.754 3.87 5.118 5.118 0 0 1-.882 2.876 5 5 0 1 1-5.145-8.138c.215.029.443.043.694.043l.22.004c.93.037 1.798.307 2.544.75l-.02.022-.291.321c-.09.103-.175.201-.253.295l-.066.079-.13.163.795.607.049-.063.129-.158.17-.198.329-.364.102-.11zm-7.835.07a6 6 0 0 0 5.886 9.265l-.626.51 2.642 1.305.012.078c.005.05.008.108.008.173v1H7.49l-.587-1.665-.254-.694-.107-.306a6.575 6.575 0 0 1-.042-.13l-.062-.223c-.087-.366-.031-.515.137-.708l.094-.099c1.266-1.246 2.56-1.842 3.69-2.02l.196-.025.075-.005 1.645-.028 1.62 1.706.322.326.254.245.093.082c1.267 1.058 2.538 1.099 4.658.055l-.442-.897-.228.11c-1.637.768-2.453.71-3.347-.036a3.716 3.716 0 0 1-.19-.174l-.271-.273-.33-.342-1.19-1.257-.73-2.158-.056-.176-.108-.385-.08-.324a9.201 9.201 0 0 1-.232-1.444 3.305 3.305 0 0 1 .029-.832l.01-.057c-.001-.01-.006-.01-.02 0l.187-.178c1.253-1.159 2.423-1.603 3.702-1.603.586 0 1.152.084 1.992.272l1.04.23c.454.09.828.138 1.205.138 1.491 0 2.654-.85 3.042-2.385l.056-.194c.495-1.53 2.125-2.545 4.23-3.087l.255-.063-.103.426a15.952 15.952 0 0 0-.37 2.263l-.298 3.602.035-.019zm7.922 13.331h4.727l-.033.109c-1.225 3.758-5.397 8.151-10.64 9.999l-.08.026-.258.017c-1.405.119-2.554.648-3.408 1.476-.625.608-.977 1.24-1.145 1.765l-.512 1.608H18v1h10.96l.195.004c1.09.049 1.825.49 1.825.715l-.001 1.281H10.931V38.71l.003-.029c.015-.068.088-.15.321-.287.419-.246 1.058-.403 1.676-.403h4.994l.006-1.994-.004-.173c-.03-.579-.217-1.252-.694-1.926l-.132-.176c-.729-.916-1.85-1.473-3.28-1.585l-.189-.011-.44-.158c-5.05-1.909-9.327-6.231-10.716-9.768l-.079-.209h32.535z" fill="#212121"/>
</svg>
