<svg width="24" height="24" viewBox="0 0 24 24" fill="none" xmlns="http://www.w3.org/2000/svg">
    <path fill-rule="evenodd" clip-rule="evenodd" d="M17.75 2a.75.75 0 0 1 .743.648l.007.102v4a.75.75 0 0 1-.648.743l-.102.007h-3a.25.25 0 0 0-.243.193l-.007.057V9h3.25c.455 0 .798.4.745.838l-.017.094-1 4a.75.75 0 0 1-.615.56l-.113.008H14.5v6.25a.75.75 0 0 1-.648.743l-.102.007h-4a.75.75 0 0 1-.743-.648L9 20.75V14.5H6.75a.75.75 0 0 1-.743-.648L6 13.75v-4a.75.75 0 0 1 .648-.743L6.75 9H9V7.75a5.75 5.75 0 0 1 5.53-5.746L14.75 2h3zM17 3.5h-2.25a4.25 4.25 0 0 0-4.245 4.044l-.005.206v2a.75.75 0 0 1-.648.743l-.102.007H7.5V13h2.25a.75.75 0 0 1 .743.648l.007.102V20H13v-6.25a.75.75 0 0 1 .648-.743L13.75 13h2.414l.625-2.5H13.75a.75.75 0 0 1-.743-.648L13 9.75v-2a1.75 1.75 0 0 1 1.607-1.744L14.75 6H17V3.5z" fill="#212121"/>
</svg>
