<svg width="24" height="24" viewBox="0 0 24 24" fill="none" xmlns="http://www.w3.org/2000/svg">
    <path fill-rule="evenodd" clip-rule="evenodd" d="M21.28 6.22a.75.75 0 0 1 0 1.06l-8 8a.75.75 0 0 1-1.06 0l-3.47-3.47-5.47 5.47a.75.75 0 0 1-1.06-1.06l6-6a.75.75 0 0 1 1.06 0l3.47 3.47 7.47-7.47a.75.75 0 0 1 1.06 0z" fill="#FD7E14"/>
    <path fill-rule="evenodd" clip-rule="evenodd" d="M13 6.75a.75.75 0 0 1 .75-.75h7a.75.75 0 0 1 .75.75v7a.75.75 0 0 1-1.5 0V7.5h-6.25a.75.75 0 0 1-.75-.75z" fill="#FD7E14"/>
</svg>
