<svg width="24" height="24" viewBox="0 0 24 24" fill="none" xmlns="http://www.w3.org/2000/svg">
    <path fill-rule="evenodd" clip-rule="evenodd" d="M7.75 3h8a4.75 4.75 0 0 1 4.75 4.75v8a4.75 4.75 0 0 1-4.75 4.75h-8A4.75 4.75 0 0 1 3 15.75v-8A4.75 4.75 0 0 1 7.75 3zm8 1.5h-8A3.25 3.25 0 0 0 4.5 7.75v8A3.25 3.25 0 0 0 7.75 19h8A3.25 3.25 0 0 0 19 15.75v-8a3.25 3.25 0 0 0-3.25-3.25zM8 11.75a3.75 3.75 0 1 1 7.5 0 3.75 3.75 0 0 1-7.5 0zm6 0a2.25 2.25 0 1 0-4.5 0 2.25 2.25 0 0 0 4.5 0zm2.993-4.602a.75.75 0 0 0-1.493.103l.007.102A.75.75 0 0 0 17 7.25l-.007-.102z" fill="#212121"/>
</svg>
