<svg width="60" height="34" viewBox="0 0 60 34" fill="none" xmlns="http://www.w3.org/2000/svg">
    <path fill-rule="evenodd" clip-rule="evenodd" d="M28.594 0c3.733 0 6.787 2.931 7.017 6.634a5.152 5.152 0 0 1 5.061 2.78 5.106 5.106 0 0 1 2.922-.914c2.847 0 5.156 2.326 5.156 5.194 0 .168-.008.333-.023.496.162-.015.326-.023.492-.023 2.847 0 5.156 2.325 5.156 5.194 0 .491-.195 1.189-.322 1.639H60v7h-5v2c0 2.082-1.363 4-3.43 4H8.43C6.373 34 5 32.309 5 30.222V28H0v-7h6c0-2.002.862-3.936 2.608-4.622a4.76 4.76 0 0 1-.17-1.267c0-2.608 2.098-4.722 4.687-4.722.326 0 .644.033.95.097.192-2.694 2.421-4.82 5.144-4.82.863 0 1.676.214 2.39.592C22.017 2.735 24.989 0 28.595 0zM24 7a5 5 0 0 1 4.797-4.996c2.564.103 4.656 2.153 4.818 4.754l.116 1.864A5.002 5.002 0 0 1 24 7zm-.738 2.392.054-.467a6.003 6.003 0 0 0 7.15 3.895c.251 2.46 2.2 4.414 4.648 4.655a4.24 4.24 0 0 0-2.878 1.665c-.251-3.155-2.802-5.64-5.92-5.64-2.158 0-4.044 1.19-5.085 2.969a4.474 4.474 0 0 0-.912-1.504 4.247 4.247 0 0 0 3.119-4.104c0-.537-.1-1.05-.28-1.523l.104.054zm-2.765 11.436c-.39.48-.88.883-1.442 1.172h1.801a6.544 6.544 0 0 1-.36-1.172zM21.953 22h8.857c.29-.678.447-1.506.447-2.348 0-2.85-2.217-5.152-4.941-5.152-2.725 0-4.941 2.303-4.941 5.152 0 .789.208 1.602.578 2.348zm9.927 0h7.82a2.5 2.5 0 0 1-.099-.278h-.726c0-1.81-1.456-3.278-3.25-3.278-1.732 0-3.15 1.368-3.245 3.092l-.005.186h-.406a6.206 6.206 0 0 1-.089.278zm7.737-1.749a4.26 4.26 0 0 0-3.481-2.776 5.172 5.172 0 0 0 3.613-2.029 4.218 4.218 0 0 0 5.02 2.332 4.77 4.77 0 0 0-.269 1.583c0 .956.282 1.869.794 2.639h-1.04l.038-.077c.14-.312.208-.585.208-.91A2.507 2.507 0 0 0 42 18.5a2.503 2.503 0 0 0-2.383 1.751zm5.883-.89c0-1.224.582-2.311 1.481-2.995l1.936-.185.15-.01.152-.004c1.74 0 3.156 1.427 3.156 3.194 0 .063-.016.17-.048.32l-.06.26-.087.329-.485 1.73h-5.182l.033-.032-.149-.164a3.752 3.752 0 0 1-.897-2.443zm-4.194-7.953.506-.351.177-.114a3.105 3.105 0 0 1 1.605-.443c1.74 0 3.156 1.427 3.156 3.194 0 .104-.005.207-.014.309l-.06.63a3.225 3.225 0 0 1-3.082 2.311c-1.584 0-2.903-1.156-3.17-2.68a5.236 5.236 0 0 0 .384-2.2c.138-.24.306-.46.498-.656zm-1.568.558-.843-1.635a3.151 3.151 0 0 0-2.801-1.72l-.15.004-.147.01-1.048.098a6.016 6.016 0 0 1-3.307 3.76c.106 2.237 1.939 4.017 4.183 4.017a4.185 4.185 0 0 0 3.77-2.383 4.262 4.262 0 0 1 .343-2.15zM40.256 22h3.72l-.667-.344c.138-.267.191-.438.191-.643 0-.836-.672-1.513-1.5-1.513s-1.5.677-1.5 1.513c0 .212.043.416.124.605l.069.138-.437.244zm-25.799-.272c.147.1.3.19.46.272h-.53c.026-.09.05-.18.07-.272zm-.898-.797a4.468 4.468 0 0 1-.877-1.565 4.403 4.403 0 0 1-.16-.02l-.209-.036.188-.956a3.232 3.232 0 0 0-1.488-.778l.001.004-1.674.659c-.741.291-1.278 1.243-1.335 2.53L8 21v1h5.33c.134-.338.212-.698.229-1.069zm3.854.543a3.517 3.517 0 0 1-2.858-.945 4.28 4.28 0 0 0-.28-1.299 4.267 4.267 0 0 0 3.022-3.303c.082-.424.098-.845.057-1.253a4.17 4.17 0 0 0 1.603.43 3.49 3.49 0 0 1 1.516 2.47 3.503 3.503 0 0 1-3.06 3.9zm-.55-8.398c.15.163.317.31.498.44.68.055 1.325.264 1.895.595 1.759-.02 3.181-1.466 3.181-3.25a3.255 3.255 0 0 0-1.224-2.55l-.537-.285a3.103 3.103 0 0 0-1.457-.36c-1.596 0-2.932 1.206-3.13 2.784l-.018.177-.046.643c.046.369.153.719.31 1.038.204.236.381.494.529.768zm-1.358-.198c.148.277.325.534.528.77.31.623.424 1.351.282 2.09a3.265 3.265 0 0 1-2.524 2.582 4.242 4.242 0 0 0-3.07-1.8l-.185-.674-.043-.179a2.775 2.775 0 0 1-.056-.556c0-1.507 1.207-2.722 2.688-2.722.185 0 .367.019.544.055l1.773.368.063.066zM54 23H2v3h56v-3h-4zM7 30.222V27h46v3l-.005.174c-.062 1.083-.7 1.826-1.426 1.826H8.431l-.137-.006C7.53 31.924 7 31.26 7 30.222z" fill="#212121"/>
</svg>
