<svg width="61" height="39" viewBox="0 0 61 39" fill="none" xmlns="http://www.w3.org/2000/svg">
    <path fill-rule="evenodd" clip-rule="evenodd" d="M55.955 3c0-1.657-1.425-3-3.182-3-1.758 0-3.182 1.343-3.182 3 0 1.508 1.18 2.757 2.718 2.968L49.14 9.487c-2.723-1.195-7.186-.092-10.647 2.231C35.099 9.418 30.448 8 25.318 8c-3.057 0-5.943.503-8.495 1.397l-.606.222C10.423 11.835 6.5 16.1 6.5 21c0 2.165.766 4.206 2.12 6H.5v8h3v2.002l.005.149A2 2 0 0 0 5.501 39H49.5l.149-.005a1.994 1.994 0 0 0 1.852-1.993V35h3v-8h-9.265c1.34-1.575 2.585-3.21 3.313-4.49l.1-.176.203-.37.209-.397.212-.419.215-.439.213-.457c.036-.077.071-.156.106-.235l.21-.48.102-.244.2-.499.096-.252.186-.512.174-.517c.392-1.214.67-2.46.719-3.607.005-.109.007-.216.007-.322.003-.802-.117-1.55-.4-2.197l2.368-2.631C53.993 10.068 55.315 11 56.864 11c2.008 0 3.636-1.567 3.636-3.5S58.872 4 56.864 4c-.41 0-.803.065-1.168.186.166-.364.259-.765.259-1.186zM49.5 33h2.999v-4.001h-.051l-11.037.002h-.505V29H12.635l.001.001-10.108-.002H2.5V33h47zm-5.788-7.296L41.758 28H29.753l-.08-.277-.05-.192c-.386-1.608.13-3.566 1.711-6.084 1.106-1.761 3.614-4.017 6.232-5.952.176-.13.354-.258.533-.384l.541-.374.549-.363.276-.176.557-.342c.093-.056.186-.112.28-.166l.56-.321.56-.305c.187-.1.373-.195.559-.288l.556-.27c1.713-.808 3.355-1.345 4.69-1.473.678.078 1.24.276 1.63.599 1.42 1.176.38 5.623-2.047 9.89-.529.928-1.435 2.175-2.563 3.543l-.535.64zm-13.225-4.79c-1.814 2.892-2.33 5.164-1.775 7.086H11.88l-1.663-2.204-.206-.283C9.013 24.091 8.5 22.563 8.5 21c0-5.884 7.406-11 16.818-11 4.606 0 8.9 1.237 12.054 3.374l.757.513-.107.07-.381.258-.514.363-.344.254-.668.509-.513.405c-.09.071-.18.144-.273.22l-.568.468c-1.55 1.301-3.33 2.976-4.274 4.48zM5.5 34h44v2.999l-.074.002L5.5 37l-.002-.072V34z" fill="#212121"/>
</svg>
