<svg width="60" height="42" viewBox="0 0 60 42" fill="none" xmlns="http://www.w3.org/2000/svg">
    <path fill-rule="evenodd" clip-rule="evenodd" d="M35 5a5 5 0 0 0-10 0l.003.16-.895.063-.443.036-.877.079-.864.089-.85.098-.418.053-.828.112-.812.121-.795.13a55.86 55.86 0 0 0-.392.07l-.77.143-.379.075-.743.156-.365.08-.715.17a41.73 41.73 0 0 0-.35.086l-.686.18c-.112.03-.224.061-.335.093l-.654.19c-.322.098-.636.198-.941.3l-.6.21c-3.82 1.378-6.177 3.182-6.287 5.16L5 13v5.083a6.002 6.002 0 0 0 0 11.834v8.081l.005.2A4.005 4.005 0 0 0 9.007 42h41.986l.2-.005A4.005 4.005 0 0 0 55 37.998v-8.081a6.002 6.002 0 0 0 0-11.834V13l-.004-.15c-.08-1.37-1.233-2.655-3.204-3.773l-.451-.246-.477-.24a23.123 23.123 0 0 0-2.457-1.004l-.61-.205a32.966 32.966 0 0 0-.633-.198l-.654-.191-.675-.184a44.464 44.464 0 0 0-2.144-.504l-.753-.151a50.803 50.803 0 0 0-.382-.073l-.779-.139a55.416 55.416 0 0 0-.395-.066l-.804-.126-.82-.117-.834-.108-.423-.05-.856-.093c-.288-.03-.578-.058-.87-.084l-.882-.074-.895-.063L35 5zm-5.296-2.986A3 3 0 0 1 33 5l-.006.188a3 3 0 0 1-5.99-.034L27 4.981a3 3 0 0 1 2.704-2.967zm3.724 5.05A3.998 3.998 0 0 1 30 9a3.998 3.998 0 0 1-3.428-1.938l-1.439.094c-5.362.348-10.145 1.266-13.565 2.568-2.891 1.1-4.414 2.332-4.555 3.105l-.01.081L7 13v3h46v2H7v1.775l-1.669.28a4.002 4.002 0 0 0-.196 7.852l.196.038 1.67.28-.002 9.724.003.15c.05 1.01.852 1.82 1.853 1.895l.152.006h41.937l.15-.002a2.005 2.005 0 0 0 1.9-1.849l.006-.151.001-9.773 1.669-.28a4.001 4.001 0 0 0 .195-7.852l-.195-.038-1.669-.28v-6.717l-.002-.093c-.047-.823-1.576-2.104-4.572-3.243-3.287-1.25-7.834-2.147-12.943-2.523l-.616-.042-1.44-.094z" fill="#212121"/>
</svg>
