<svg width="24" height="24" viewBox="0 0 24 24" fill="none" xmlns="http://www.w3.org/2000/svg">
    <path fill-rule="evenodd" clip-rule="evenodd" d="m20.678 8.371.005-.49.004.066c.002.012.005.015.007.014l.355-.708.453-.885.283-.575.125-.265c.24-.515.413-.944.52-1.304l.023-.085.006-.014c.16-.444-.13-1.012-.709-1.012l-.11.008-.108.024-.11.044a7.21 7.21 0 0 1-.59.256l-.438.156-.375.117-.479.136-.572.157-.122-.107c-1.252-1.034-2.957-1.157-4.738-.49l-.208.083c-1.712.728-2.836 2.323-2.896 4.146l-.002.448-.182-.01C8.22 7.89 5.916 6.588 4.361 4.416a.75.75 0 0 0-1.263.069l-.093.176-.047.097c-.7 1.446-1.161 3.211-.992 5.07l.028.265c.285 2.28 1.548 4.231 3.947 5.673l.265.155-.172.096c-1.47.793-2.797 1.143-4.253 1.086-.793-.03-1.085 1.029-.388 1.408 3.543 1.931 7.339 2.526 10.602 1.579 3.978-1.156 7.005-4.134 8.164-8.26.311-1.13.485-2.29.519-3.459zM18.19 5.35a.75.75 0 0 0 .774.222l1.17-.327.29-.083-.178.364-.83 1.626-.1.209c-.097.211-.127.32-.132.458v.062a13.086 13.086 0 0 1-.47 3.547c-1.016 3.616-3.65 6.208-7.138 7.221l-.308.084c-1.945.492-4.122.371-6.313-.32l-.44-.146.252-.075c1.104-.35 2.208-.92 3.4-1.715a.75.75 0 0 0-.116-1.312c-3-1.308-4.383-3.187-4.591-5.473l-.022-.33a8.015 8.015 0 0 1 .418-2.835l.086-.25.036.043c2 2.174 4.769 3.36 7.793 3.282a.75.75 0 0 0 .73-.75v-1c-.018-1.355.819-2.542 2.133-3.034 1.481-.555 2.743-.386 3.556.532z" fill="#212121"/>
</svg>
