<svg width="70" height="24" viewBox="0 0 70 24" fill="none" xmlns="http://www.w3.org/2000/svg">
    <path fill-rule="evenodd" clip-rule="evenodd" d="M20.733 7.2c1.796 0 3.12.364 3.974 1.093.803.686 1.228 1.853 1.275 3.5l.005.314v8.826h-3.174l-.4-2.026-.207.229c-1.327 1.411-2.902 2.117-4.726 2.117-1.28 0-2.324-.337-3.133-1.013-.755-.63-1.158-1.493-1.208-2.588l-.006-.239v-1.36l.006-.225c.048-.959.406-1.715 1.074-2.268.665-.55 1.568-.846 2.71-.888l.29-.005h4.747v-.587l-.005-.196c-.027-.569-.176-.961-.448-1.177-.303-.24-.88-.36-1.734-.36-1.362 0-3.065.06-5.108.181l-.518.032-.374-2.693.742-.127c2.21-.36 4.282-.54 6.218-.54zm12.4-5.2v4.24l-.004.408c-.023 1.067-.137 1.98-.342 2.739C34.209 7.929 35.79 7.2 37.533 7.2c1.725 0 2.97.538 3.734 1.613.764 1.076 1.146 2.85 1.146 5.32 0 1.103-.093 2.058-.28 2.867a6.493 6.493 0 0 1-.96 2.213c-.453.667-1.12 1.174-2 1.52-.88.347-1.969.52-3.266.52-1.085 0-2.298-.089-3.64-.266-1.22-.162-2.202-.382-2.945-.661l-.215-.086V2h4.026zm25.629 5.4 2.895 5.222h.273L64.852 7.4h4.18l-3.906 6.61L69.332 21h-4.206l-3.25-5.712h-.165L58.461 21h-4.206l4.206-6.99-3.906-6.61h4.207zM4.107 2.187c3.982 0 6.782.097 8.4.293l-.214 3.013H5.6l-.187.006c-.42.024-.73.133-.933.328-.231.222-.347.573-.347 1.053v3.2h7.147v3.013H4.133v7.84H0V6.053l.006-.255c.05-1.087.42-1.95 1.114-2.585.747-.684 1.742-1.026 2.987-1.026zM53.76 7.2l-.4 3.707h-1.093l-.16.003c-.83.037-2.137.347-3.92.93v9.093h-4V7.6h3.12l.346 1.947.29-.24c1.731-1.405 3.44-2.107 5.124-2.107h.693zm-17.827 3.2c-.693 0-1.555.33-2.586.989l-.24.158v6.48l.382.083a9.977 9.977 0 0 0 2.338.183c.924-.035 1.569-.342 1.933-.92.364-.577.547-1.649.547-3.213 0-1.476-.156-2.471-.467-2.987-.311-.515-.947-.773-1.907-.773zM21.96 15.093h-3.6l-.155.005c-.7.046-1.073.411-1.12 1.097l-.005.152v.533l.005.158c.058.82.581 1.229 1.568 1.229.99 0 2.012-.376 3.064-1.127l.243-.18v-1.867z" fill="#333"/>
</svg>
