<svg width="50" height="41" viewBox="0 0 50 41" fill="none" xmlns="http://www.w3.org/2000/svg">
    <path fill-rule="evenodd" clip-rule="evenodd" d="M1.962 0h1.403l.568.013.43.02.319.02.344.027.56.054.402.048.42.056.44.067.457.078.234.044.48.096.493.11c.166.039.334.08.505.124l.515.138c.52.147 1.054.317 1.595.515l.543.207c3.45 1.37 7.095 3.893 9.266 8.526C22.024 12.465 22.983 17.973 23 22c0-5.66 3.524-12 10.5-12 6.864 0 10.419 5.17 10.531 10.726l.003.274H50v10h-2.904l-.137.294-.178.35-.187.341-.232.4-.18.295-.201.315a19.17 19.17 0 0 1-.109.164l-.233.34-.255.356-.278.368-.147.188-.31.382c-.108.128-.22.258-.334.389l-.358.393c-2.397 2.567-6.29 5.285-12.08 5.42L31.43 41H18.57c-6.51 0-10.654-3.245-13.016-6.038l-.305-.369a19.387 19.387 0 0 1-.144-.182l-.274-.358a19.067 19.067 0 0 1-.129-.175l-.242-.342-.223-.328-.298-.464-.175-.287-.226-.393-.238-.442-.198-.4-.1-.222H0V21h6.044c-.024-.027-.021-.125-.012-.24l.022-.238c.01-.116.013-.213-.01-.24-.604-.7-1.061-1.343-1.318-1.892-.295-.629-.562-1.453-.802-2.404l-.142-.586c-.046-.2-.091-.404-.135-.612l-.13-.637a47.012 47.012 0 0 1-.062-.326l-.12-.666-.115-.682-.11-.694-.152-1.057-.141-1.066-.13-1.064-.116-1.051-.106-1.027-.152-1.627-.123-1.477-.11-1.503L1.962 0zM21 22a27.726 27.726 0 0 0-.029-1.12l-.045-.786c-.237-3.45-1.006-7.406-1.801-9.103-1.745-3.723-4.669-6.174-8.44-7.611a21.387 21.387 0 0 0-6.072-1.332l-.521-.03.067.908c.173 2.276.394 4.552.665 6.668l.165 1.216.114.77.117.738.12.702.124.666.127.628c.02.102.042.202.064.3l.13.569.066.27.133.506c.18.648.364 1.18.553 1.582.16.342.508.84 1.013 1.425.344.394.45.74.496 1.135l.012.149L9.626 22H15.5l-.01-.246-.018-.254a15.427 15.427 0 0 0-.298-1.973 19.788 19.788 0 0 0-2.252-5.828c-1.131-1.95-2.248-3.453-3.3-4.565a11.373 11.373 0 0 0-.98-.93l-.173-.14-.117-.087-.038-.026.544-.84.08.054.184.137.219.178c.156.132.334.293.531.484l.31.31.166.172c1.106 1.17 2.27 2.735 3.439 4.751a20.784 20.784 0 0 1 2.365 6.123c.15.707.247 1.356.302 1.934l.035.45.01.214.001.08L16 22h5zm-10.478 1H2v6H48v-6H10.522zm31.512-1H25l.003-.29C25.121 16.324 28.514 12 33.5 12c5.277 0 8.534 3.777 8.534 9v1zM4.887 30.318 4.755 30h40.592l-.093.22-.163.338-.167.318c-.806 1.49-2.036 3.126-3.708 4.564-2.627 2.258-5.85 3.56-9.787 3.56H18.57l-.425-.005c-4.23-.102-7.585-1.725-10.22-4.399a16.673 16.673 0 0 1-2.386-3.068l-.225-.384-.097-.173-.163-.306a9.697 9.697 0 0 1-.066-.131l-.102-.216zM34 14v1h-1v-1h1zm0 3v-1h-1v1h1zm0 1v1h-1v-1h1zm0 3v-1h-1v1h1zm2-2v1h-1v-1h1zm2 1v-1h-1v1h1zm2-2v1h-1v-1h1zm-3 0v-1h-1v1h1zm1-3v1h-1v-1h1zm-8 1v-1h-1v1h1zm1 1v1h-1v-1h1zm1 3v-1h-1v1h1zm-2-1v1h-1v-1h1zm-2 0v-1h-1v1h1z" fill="#212121"/>
</svg>
