<svg width="19" height="19" viewBox="0 0 19 19" fill="none" xmlns="http://www.w3.org/2000/svg">
<path fill-rule="evenodd" clip-rule="evenodd" d="M2.64052 13.719C4.09884 13.719 5.28104 14.9012 5.28104 16.3595C5.28104 17.8178 4.09884 19 2.64052 19C1.1822 19 0 17.8178 0 16.3595C0 14.9012 1.1822 13.719 2.64052 13.719ZM16.3595 13.719C17.8178 13.719 19 14.9012 19 16.3595C19 17.8178 17.8178 19 16.3595 19C14.9012 19 13.719 17.8178 13.719 16.3595C13.719 14.9012 14.9012 13.719 16.3595 13.719ZM2.64052 6.85948C4.09884 6.85948 5.28104 8.04168 5.28104 9.5C5.28104 10.9583 4.09884 12.1405 2.64052 12.1405C1.1822 12.1405 0 10.9583 0 9.5C0 8.04168 1.1822 6.85948 2.64052 6.85948ZM9.5 6.85948C10.9583 6.85948 12.1405 8.04168 12.1405 9.5C12.1405 10.9583 10.9583 12.1405 9.5 12.1405C8.04168 12.1405 6.85948 10.9583 6.85948 9.5C6.85948 8.04168 8.04168 6.85948 9.5 6.85948ZM2.64052 0C4.09884 0 5.28104 1.1822 5.28104 2.64052C5.28104 4.09884 4.09884 5.28104 2.64052 5.28104C1.1822 5.28104 0 4.09884 0 2.64052C0 1.1822 1.1822 0 2.64052 0ZM16.3595 0C17.8178 0 19 1.1822 19 2.64052C19 4.09884 17.8178 5.28104 16.3595 5.28104C14.9012 5.28104 13.719 4.09884 13.719 2.64052C13.719 1.1822 14.9012 0 16.3595 0ZM9.5 0C10.9583 0 12.1405 1.1822 12.1405 2.64052C12.1405 4.09884 10.9583 5.28104 9.5 5.28104C8.04168 5.28104 6.85948 4.09884 6.85948 2.64052C6.85948 1.1822 8.04168 0 9.5 0Z" fill="white"/>
</svg>
