<svg width="1440" height="357" viewBox="0 0 1440 357" fill="none" xmlns="http://www.w3.org/2000/svg">
<g filter="url(#filter0_d_687_78270)">
<rect x="137" y="234" width="120" height="120" rx="60" fill="white" shape-rendering="crispEdges"/>
<path d="M176.717 310.108C175.524 310.111 174.351 309.797 173.318 309.198C172.286 308.599 171.431 307.736 170.841 306.698C170.26 305.668 169.97 304.499 170.002 303.317C170.035 302.134 170.389 300.983 171.025 299.986L183.127 280.982C183.747 279.96 184.626 279.121 185.676 278.551C186.725 277.981 187.908 277.699 189.101 277.736C190.295 277.764 191.459 278.109 192.474 278.735C193.49 279.362 194.322 280.246 194.883 281.299C196.011 283.433 195.87 285.999 194.519 288.002L182.425 307.006C181.812 307.962 180.967 308.747 179.969 309.29C178.971 309.832 177.853 310.114 176.717 310.108Z" fill="#F62B54"/>
<path d="M197.475 310.108C195.035 310.108 192.789 308.803 191.609 306.706C191.029 305.678 190.74 304.513 190.773 303.333C190.805 302.154 191.158 301.006 191.794 300.011L203.873 281.051C204.483 280.015 205.359 279.161 206.411 278.578C207.462 277.996 208.65 277.704 209.852 277.736C212.313 277.789 214.544 279.166 215.672 281.32C216.793 283.474 216.629 286.056 215.236 288.053L203.16 307.014C202.548 307.965 201.707 308.748 200.714 309.289C199.72 309.829 198.607 310.111 197.475 310.108Z" fill="#FFCC00"/>
<path d="M217.769 310.267C221.211 310.267 224 307.536 224 304.168C224 300.799 221.211 298.068 217.769 298.068C214.328 298.068 211.539 300.799 211.539 304.168C211.539 307.536 214.328 310.267 217.769 310.267Z" fill="#00CA72"/>
<rect x="137.5" y="234.5" width="119" height="119" rx="59.5" stroke="#DAE0E6" shape-rendering="crispEdges"/>
</g>
<g filter="url(#filter1_d_687_78270)">
<rect x="389" y="73" width="120" height="120" rx="60" fill="white" shape-rendering="crispEdges"/>
<path d="M466.911 116.398C466.874 116.125 466.635 115.974 466.438 115.958C466.241 115.941 462.397 115.883 462.397 115.883C462.397 115.883 459.182 112.761 458.865 112.443C458.547 112.125 457.927 112.221 457.686 112.293C457.686 112.293 457.082 112.48 456.071 112.794C455.901 112.245 455.653 111.571 455.297 110.894C454.153 108.71 452.477 107.555 450.451 107.552H450.444C450.303 107.552 450.163 107.565 450.023 107.577C449.963 107.505 449.903 107.435 449.84 107.366C448.957 106.422 447.826 105.962 446.47 106.002C443.855 106.077 441.249 107.967 439.137 111.322C437.651 113.683 436.52 116.65 436.199 118.946C433.195 119.877 431.095 120.527 431.049 120.542C429.532 121.018 429.485 121.065 429.287 122.494C429.14 123.574 425.173 154.25 425.173 154.25L458.418 160L472.827 156.418C472.827 156.418 466.949 116.671 466.911 116.398ZM454.406 113.309C453.641 113.546 452.77 113.815 451.826 114.107C451.807 112.783 451.65 110.94 451.032 109.348C453.017 109.724 453.994 111.97 454.406 113.309ZM450.087 114.647C448.345 115.186 446.443 115.775 444.536 116.365C445.073 114.311 446.09 112.266 447.339 110.925C447.804 110.426 448.454 109.871 449.224 109.553C449.948 111.063 450.105 113.201 450.087 114.647ZM446.523 107.743C447.137 107.73 447.654 107.865 448.096 108.155C447.389 108.522 446.706 109.05 446.064 109.737C444.403 111.52 443.13 114.287 442.622 116.957C441.038 117.447 439.489 117.928 438.063 118.368C438.963 114.166 442.485 107.86 446.523 107.743Z" fill="#95BF47"/>
<path d="M466.438 115.958C466.241 115.941 462.397 115.883 462.397 115.883C462.397 115.883 459.182 112.761 458.865 112.443C458.746 112.325 458.587 112.265 458.42 112.239L458.421 159.999L472.827 156.418C472.827 156.418 466.949 116.671 466.911 116.398C466.874 116.125 466.635 115.974 466.438 115.958Z" fill="#5E8E3E"/>
<path d="M450.433 123.367L448.76 129.628C448.76 129.628 446.893 128.779 444.68 128.918C441.435 129.123 441.401 131.17 441.434 131.684C441.61 134.484 448.977 135.095 449.39 141.654C449.715 146.813 446.653 150.343 442.241 150.622C436.945 150.956 434.03 147.832 434.03 147.832L435.152 143.059C435.152 143.059 438.087 145.273 440.436 145.125C441.97 145.028 442.518 143.78 442.463 142.897C442.232 139.245 436.234 139.46 435.855 133.459C435.535 128.409 438.852 123.291 446.171 122.83C448.99 122.648 450.433 123.367 450.433 123.367Z" fill="white"/>
<rect x="389.5" y="73.5" width="119" height="119" rx="59.5" stroke="#DAE0E6" shape-rendering="crispEdges"/>
</g>
<g filter="url(#filter2_d_687_78270)">
<rect x="85" y="3" width="120" height="120" rx="60" fill="white" shape-rendering="crispEdges"/>
<path d="M171.604 57.2127C169.07 45.5626 155.108 38.7116 140.414 41.9067C125.72 45.1018 115.866 57.1398 118.396 68.7867C120.927 80.4336 134.892 87.2911 149.583 84.0927C164.274 80.8943 174.135 68.8729 171.604 57.2127ZM145.002 73.7384C142.879 73.7384 140.804 73.1086 139.039 71.9286C137.274 70.7486 135.899 69.0715 135.086 67.1092C134.274 65.147 134.062 62.9878 134.476 60.9047C134.89 58.8216 135.912 56.9081 137.413 55.4063C138.914 53.9045 140.826 52.8817 142.908 52.4673C144.99 52.053 147.148 52.2656 149.109 53.0784C151.07 53.8912 152.746 55.2676 153.925 57.0336C155.105 58.7996 155.734 60.8758 155.734 62.9997C155.734 64.4099 155.456 65.8064 154.917 67.1092C154.378 68.4121 153.587 69.596 152.591 70.5931C151.594 71.5903 150.411 72.3813 149.109 72.921C147.807 73.4607 146.411 73.7384 145.002 73.7384Z" fill="#008C99"/>
<path d="M147.38 47.9655C144.333 47.9662 141.354 48.871 138.82 50.5656C136.286 52.2603 134.312 54.6686 133.146 57.486C131.98 60.3035 131.675 63.4035 132.27 66.3942C132.865 69.385 134.333 72.132 136.488 74.288C138.644 76.444 141.389 77.9122 144.378 78.5068C147.367 79.1015 150.466 78.796 153.281 77.6289C156.097 76.4618 158.503 74.4855 160.196 71.95C161.889 69.4145 162.793 66.4336 162.793 63.3842C162.793 61.3591 162.394 59.3538 161.62 57.4829C160.845 55.6121 159.71 53.9122 158.278 52.4804C156.847 51.0486 155.148 49.9129 153.278 49.1382C151.408 48.3636 149.404 47.9651 147.38 47.9655ZM145.005 72.3795C143.151 72.3795 141.339 71.8294 139.797 70.7987C138.255 69.7681 137.054 68.3031 136.344 66.5892C135.635 64.8753 135.449 62.9893 135.811 61.1698C136.173 59.3503 137.066 57.679 138.377 56.3672C139.688 55.0554 141.358 54.1621 143.176 53.8001C144.995 53.4382 146.88 53.624 148.592 54.3339C150.305 55.0438 151.769 56.2461 152.799 57.7886C153.829 59.3311 154.379 61.1446 154.379 62.9997C154.379 65.4868 153.392 67.8721 151.635 69.6311C149.878 71.39 147.491 72.3786 145.005 72.3795Z" fill="#70CCD3"/>
<rect x="85.5" y="3.5" width="119" height="119" rx="59.5" stroke="#DAE0E6" shape-rendering="crispEdges"/>
</g>
<g filter="url(#filter3_d_687_78270)">
<rect x="214" y="109" width="88" height="88" rx="44" fill="white" shape-rendering="crispEdges"/>
<path d="M278.954 153C278.954 164.598 269.573 174 258 174C246.427 174 237.046 164.598 237.046 153C237.046 141.402 246.427 132 258 132C269.573 132 278.954 141.402 278.954 153Z" fill="white"/>
<path d="M258 132C246.427 132 237.046 141.402 237.046 153C237.046 161.897 242.566 169.499 250.361 172.559C250.178 170.898 250.012 168.342 250.434 166.529C250.815 164.89 252.891 156.09 252.891 156.09C252.891 156.09 252.264 154.832 252.264 152.972C252.264 150.052 253.953 147.872 256.056 147.872C257.844 147.872 258.707 149.217 258.707 150.83C258.707 152.632 257.562 155.326 256.972 157.823C256.478 159.913 258.018 161.617 260.075 161.617C263.799 161.617 266.662 157.682 266.662 152.001C266.662 146.973 263.057 143.457 257.909 143.457C251.947 143.457 248.447 147.939 248.447 152.571C248.447 154.376 249.141 156.311 250.007 157.363C250.178 157.571 250.203 157.753 250.152 157.965C249.993 158.629 249.639 160.055 249.57 160.347C249.479 160.731 249.266 160.813 248.869 160.628C246.252 159.407 244.616 155.572 244.616 152.492C244.616 145.868 249.419 139.784 258.461 139.784C265.73 139.784 271.379 144.975 271.379 151.913C271.379 159.15 266.826 164.975 260.506 164.975C258.382 164.975 256.386 163.869 255.703 162.564C255.703 162.564 254.652 166.573 254.398 167.556C253.924 169.38 252.647 171.666 251.793 173.061C253.754 173.669 255.84 174 258 174C269.573 174 278.954 164.598 278.954 153C278.954 141.402 269.573 132 258 132Z" fill="#E60023"/>
<rect x="214.5" y="109.5" width="87" height="87" rx="43.5" stroke="#DAE0E6" shape-rendering="crispEdges"/>
</g>
<g filter="url(#filter4_d_687_78270)">
<rect x="20" y="146" width="88" height="88" rx="44" fill="white" shape-rendering="crispEdges"/>
<path d="M64.028 178.851L53.514 185.574L64.028 192.297L53.514 199.02L43 192.241L53.514 185.518L43 178.851L53.514 172.128L64.028 178.851ZM53.4581 201.149L63.972 194.426L74.486 201.149L63.972 207.872L53.4581 201.149ZM64.028 192.241L74.5419 185.518L64.028 178.851L74.486 172.128L85 178.851L74.486 185.574L85 192.297L74.486 199.02L64.028 192.241Z" fill="#0061FF"/>
<rect x="20.5" y="146.5" width="87" height="87" rx="43.5" stroke="#DAE0E6" shape-rendering="crispEdges"/>
</g>
<g filter="url(#filter5_d_687_78270)">
<rect x="313" y="207" width="88" height="88" rx="44" fill="white" shape-rendering="crispEdges"/>
<path d="M357 264.247C357.441 264.247 357.861 264.142 358.26 263.911L362.857 261.266C363.781 260.741 364.851 260.51 365.922 260.636C371.506 261.287 375.411 262.337 376.566 262.673C376.797 262.735 377.07 262.652 377.216 262.462C377.406 262.232 377.636 261.854 377.825 261.308C377.993 260.783 378.014 260.342 377.993 260.027C377.972 259.775 377.804 259.544 377.552 259.481C375.747 258.957 367.749 256.794 357 256.794C346.251 256.794 338.253 258.957 336.448 259.481C336.196 259.544 336.028 259.775 336.007 260.027C335.986 260.321 336.007 260.762 336.175 261.308C336.342 261.854 336.595 262.232 336.783 262.462C336.93 262.652 337.203 262.735 337.434 262.672C338.589 262.337 342.515 261.287 348.078 260.636C349.148 260.51 350.219 260.741 351.143 261.266L355.74 263.911C356.139 264.142 356.58 264.247 357 264.247ZM349.337 249.363C349.589 249.803 349.988 250.097 350.45 250.223C350.912 250.349 351.395 250.286 351.836 250.034C352.276 249.783 352.57 249.384 352.696 248.922C352.822 248.46 352.759 247.977 352.507 247.536L348.372 240.378C348.246 240.147 347.973 240.063 347.721 240.084C347.385 240.105 346.923 240.273 346.377 240.588C345.832 240.902 345.454 241.217 345.265 241.49C345.118 241.7 345.076 241.973 345.202 242.204L349.337 249.363ZM345.559 254.485C345.999 254.737 346.503 254.779 346.944 254.674C347.406 254.548 347.805 254.254 348.057 253.813C348.309 253.372 348.351 252.869 348.246 252.428C348.141 251.987 347.826 251.567 347.385 251.315L340.226 247.179C339.995 247.053 339.723 247.095 339.513 247.242C339.24 247.431 338.925 247.809 338.61 248.355C338.295 248.901 338.127 249.363 338.106 249.699C338.085 249.971 338.19 250.223 338.4 250.349L345.559 254.485ZM358.826 246.823C358.826 247.326 358.616 247.788 358.302 248.124C357.966 248.46 357.525 248.649 357 248.649C356.496 248.649 356.034 248.439 355.698 248.124C355.363 247.788 355.174 247.347 355.174 246.823V238.572C355.174 238.299 355.342 238.089 355.593 237.984C355.887 237.837 356.37 237.753 357 237.753C357.63 237.753 358.113 237.837 358.406 237.984C358.637 238.11 358.826 238.299 358.826 238.572V246.823ZM364.663 249.363C364.411 249.803 364.012 250.097 363.55 250.223C363.088 250.349 362.605 250.286 362.164 250.034C361.724 249.783 361.43 249.384 361.304 248.922C361.178 248.46 361.241 247.977 361.493 247.536L365.628 240.378C365.754 240.147 366.027 240.063 366.279 240.084C366.615 240.105 367.077 240.273 367.623 240.588C368.168 240.902 368.546 241.217 368.735 241.49C368.882 241.7 368.924 241.973 368.798 242.204L364.663 249.363ZM368.441 254.485C368.001 254.737 367.497 254.779 367.056 254.674C366.594 254.548 366.195 254.254 365.943 253.813C365.691 253.372 365.649 252.869 365.754 252.428C365.88 251.966 366.174 251.567 366.615 251.315L373.774 247.179C374.005 247.053 374.278 247.095 374.487 247.242C374.76 247.431 375.075 247.809 375.39 248.355C375.705 248.901 375.873 249.363 375.894 249.699C375.915 249.971 375.81 250.223 375.6 250.349L368.441 254.485Z" fill="#0770E3"/>
<rect x="313.5" y="207.5" width="87" height="87" rx="43.5" stroke="#DAE0E6" shape-rendering="crispEdges"/>
</g>
<g filter="url(#filter6_d_687_78270)">
<rect x="533" y="1" width="88" height="88" rx="44" fill="white" shape-rendering="crispEdges"/>
<path d="M587.822 36.5074L576.998 30.2537L566.177 36.5074V30.2537L577 24L587.823 30.2537L587.822 36.5074Z" fill="#A435F0"/>
<path d="M571.847 41.7602V55.5441C571.847 59.1054 574.505 60.8417 577 60.8417C579.517 60.8417 582.155 59.0602 582.155 55.4971V41.7602H587.823V55.8732C587.823 59.1542 586.792 61.6846 584.732 63.4209C582.669 65.1554 580.093 66 576.951 66C573.813 66 571.236 65.1571 569.223 63.4209C567.208 61.6863 566.177 59.25 566.177 56.0126V41.7602H571.847Z" fill="black"/>
<rect x="533.5" y="1.5" width="87" height="87" rx="43.5" stroke="#DAE0E6" shape-rendering="crispEdges"/>
</g>
<g filter="url(#filter7_d_687_78270)">
<rect x="827" y="235" width="88" height="88" rx="44" fill="white" shape-rendering="crispEdges"/>
<path d="M869.961 277.958H850.003V258H869.961V277.958Z" fill="#F1511B"/>
<path d="M891.997 277.958H872.039V258H891.997V277.958Z" fill="#80CC28"/>
<path d="M869.96 300H850.003V280.042H869.96V300Z" fill="#00ADEF"/>
<path d="M891.997 300H872.039V280.042H891.997V300Z" fill="#FBBC09"/>
<rect x="827.5" y="235.5" width="87" height="87" rx="43.5" stroke="#DAE0E6" shape-rendering="crispEdges"/>
</g>
<g filter="url(#filter8_d_687_78270)">
<rect x="889" y="121" width="88" height="88" rx="44" fill="white" shape-rendering="crispEdges"/>
<path d="M953.987 164.127C954.045 165.275 953.909 166.403 953.577 167.513C953.265 168.602 952.778 169.653 952.134 170.587C951.491 171.541 950.692 172.378 949.775 173.059L949.756 173.078L941.001 179.637L936.672 182.906L934.059 184.891C933.903 185.008 933.734 185.092 933.552 185.144C933.37 185.209 933.182 185.241 932.987 185.241C932.792 185.241 932.603 185.209 932.421 185.144C932.239 185.092 932.077 185.008 931.934 184.891L929.302 182.906L924.993 179.637L916.296 173.117L916.257 173.078L916.218 173.059C915.321 172.378 914.522 171.541 913.878 170.587C913.215 169.653 912.728 168.602 912.416 167.513C912.104 166.403 911.968 165.275 912.006 164.127C912.065 162.978 912.299 161.85 912.708 160.779L912.767 160.643L918.48 145.717C918.506 145.639 918.538 145.568 918.577 145.503C918.616 145.438 918.662 145.373 918.714 145.308C918.766 145.243 918.818 145.185 918.87 145.133C918.935 145.081 919 145.036 919.065 144.997C919.26 144.88 919.494 144.802 919.728 144.763C919.962 144.744 920.196 144.783 920.41 144.861C920.644 144.938 920.839 145.075 920.995 145.25C921.151 145.425 921.268 145.639 921.327 145.873L925.187 157.685H940.806L944.666 145.873C944.744 145.639 944.842 145.425 945.017 145.25C945.173 145.075 945.368 144.938 945.583 144.861C945.817 144.783 946.051 144.744 946.285 144.763C946.519 144.802 946.733 144.88 946.948 144.997C947.013 145.036 947.071 145.081 947.123 145.133C947.188 145.185 947.247 145.243 947.299 145.308L947.416 145.503C947.455 145.568 947.494 145.639 947.533 145.717L953.246 160.624L953.304 160.779C953.714 161.85 953.948 162.978 953.987 164.127Z" fill="#E24329"/>
<path d="M953.987 164.127C954.045 165.275 953.909 166.404 953.597 167.513C953.265 168.603 952.778 169.653 952.134 170.587C951.491 171.541 950.692 172.378 949.775 173.059L949.756 173.078L941.001 179.637L933.006 173.585L945.563 164.088C946.122 163.66 946.707 163.27 947.318 162.92C947.929 162.557 948.56 162.233 949.21 161.947C949.86 161.649 950.522 161.389 951.198 161.169C951.861 160.948 952.544 160.766 953.246 160.624L953.304 160.779C953.714 161.85 953.948 162.978 953.987 164.127Z" fill="#FC6D26"/>
<path d="M933.006 173.585L941.001 179.637L936.672 182.906L934.059 184.891C933.903 185.008 933.734 185.092 933.552 185.144C933.37 185.209 933.182 185.241 932.987 185.241C932.792 185.241 932.603 185.209 932.421 185.144C932.239 185.092 932.077 185.008 931.934 184.891L929.302 182.906L924.993 179.637L933.006 173.585Z" fill="#FCA326"/>
<path d="M932.987 173.585L924.993 179.637L916.296 173.117L916.257 173.078L916.218 173.059C915.321 172.378 914.522 171.541 913.878 170.587C913.215 169.653 912.728 168.602 912.416 167.513C912.104 166.403 911.968 165.275 912.006 164.127C912.065 162.978 912.299 161.85 912.708 160.779L912.767 160.643C913.456 160.786 914.138 160.961 914.814 161.169C915.49 161.39 916.153 161.649 916.803 161.947C917.44 162.233 918.064 162.557 918.675 162.92C919.286 163.284 919.877 163.673 920.449 164.088L932.987 173.585Z" fill="#FC6D26"/>
<rect x="889.5" y="121.5" width="87" height="87" rx="43.5" stroke="#DAE0E6" shape-rendering="crispEdges"/>
</g>
<g filter="url(#filter9_d_687_78270)">
<rect x="585" y="123" width="64" height="64" rx="32" fill="white" shape-rendering="crispEdges"/>
<path d="M617 140C608.72 140 602 146.72 602 155C602 163.28 608.72 170 617 170C625.28 170 632 163.28 632 155C632 146.72 625.28 140 617 140ZM617 166.04C610.88 166.04 605.96 161.12 605.96 155C605.96 148.88 610.88 143.96 617 143.96C623.12 143.96 628.04 148.88 628.04 155C628.04 161.12 623.12 166.04 617 166.04Z" fill="#F12E45"/>
<path d="M620.72 154.4C622.443 154.4 623.84 153.003 623.84 151.28C623.84 149.557 622.443 148.16 620.72 148.16C618.997 148.16 617.6 149.557 617.6 151.28C617.6 153.003 618.997 154.4 620.72 154.4Z" fill="#F12E45"/>
<path d="M620.72 161.84C622.443 161.84 623.84 160.443 623.84 158.72C623.84 156.997 622.443 155.6 620.72 155.6C618.997 155.6 617.6 156.997 617.6 158.72C617.6 160.443 618.997 161.84 620.72 161.84Z" fill="#F12E45"/>
<path d="M613.28 161.84C615.003 161.84 616.4 160.443 616.4 158.72C616.4 156.997 615.003 155.6 613.28 155.6C611.557 155.6 610.16 156.997 610.16 158.72C610.16 160.443 611.557 161.84 613.28 161.84Z" fill="#F12E45"/>
<path d="M613.28 154.4C615.003 154.4 616.4 153.003 616.4 151.28C616.4 149.557 615.003 148.16 613.28 148.16C611.557 148.16 610.16 149.557 610.16 151.28C610.16 153.003 611.557 154.4 613.28 154.4Z" fill="#F12E45"/>
<rect x="585.5" y="123.5" width="63" height="63" rx="31.5" stroke="#DAE0E6" shape-rendering="crispEdges"/>
</g>
<g filter="url(#filter10_d_687_78270)">
<rect x="1001" y="204" width="64" height="64" rx="32" fill="white" shape-rendering="crispEdges"/>
<path d="M1043.76 221H1022.24C1020.74 221 1019.54 222.2 1019.54 223.7V248.3C1019.54 249.8 1020.74 251 1022.24 251H1043.76C1045.26 251 1046.46 249.8 1046.46 248.3V223.7C1046.46 222.2 1045.26 221 1043.76 221ZM1044.96 248.3C1044.96 248.975 1044.44 249.5 1043.76 249.5H1022.24C1021.56 249.5 1021.04 248.975 1021.04 248.3V223.7C1021.04 223.025 1021.56 222.5 1022.24 222.5H1043.76C1044.44 222.5 1044.96 223.025 1044.96 223.7V248.3ZM1026.29 246.5L1029.66 243.5L1026.29 240.5V246.5ZM1038.44 234.35C1037.84 233.75 1036.71 233 1034.84 233C1032.81 233 1030.71 233.525 1029.21 234.05V225.5H1026.21V238.475L1028.31 237.5C1028.31 237.5 1031.76 235.925 1034.76 235.925C1036.26 235.925 1036.64 236.75 1036.64 237.5V246.5H1039.64V237.5C1039.71 237.275 1039.71 235.625 1038.44 234.35ZM1034.46 230.375H1037.46C1038.81 228.8 1039.49 227.225 1039.71 225.5H1036.71C1036.41 227.225 1035.66 228.8 1034.46 230.375Z" fill="#430098"/>
<rect x="1001.5" y="204.5" width="63" height="63" rx="31.5" stroke="#DAE0E6" shape-rendering="crispEdges"/>
</g>
<g filter="url(#filter11_d_687_78270)">
<rect x="1141" y="24" width="64" height="64" rx="32" fill="white" shape-rendering="crispEdges"/>
<path d="M1178.56 44.2143L1160.01 54.9286V48.5L1173 41L1178.56 44.2143Z" fill="#221F20"/>
<path d="M1185.99 48.5V52.2088L1163.22 65.3544L1160.01 63.5V60.011L1182.96 46.7555L1185.99 48.5Z" fill="#221F20"/>
<path d="M1167.62 67.8956L1185.99 57.2912V63.5L1173 71L1167.62 67.8956Z" fill="#221F20"/>
<rect x="1141.5" y="24.5" width="63" height="63" rx="31.5" stroke="#DAE0E6" shape-rendering="crispEdges"/>
</g>
<g filter="url(#filter12_d_687_78270)">
<rect x="1253" y="246" width="64" height="64" rx="32" fill="white" shape-rendering="crispEdges"/>
<path fill-rule="evenodd" clip-rule="evenodd" d="M1275.37 269.219C1277.77 266.621 1280.89 264.991 1284.96 264.991C1291.48 264.991 1295.15 269.327 1297.17 273.692C1298.95 277.529 1299.6 281.657 1299.88 283.488C1299.92 283.727 1299.95 283.927 1299.98 284.082C1300.02 284.317 1300 284.559 1299.92 284.784C1299.18 286.799 1297.33 288.27 1295.19 289.25C1293.02 290.248 1290.35 290.841 1287.62 290.978C1282.23 291.248 1276.02 289.753 1272.83 285.31C1272.28 284.545 1272.57 284.251 1272.68 283.992L1272.68 283.984C1272.68 283.98 1272.68 283.974 1272.69 283.966C1272.69 283.95 1272.7 283.928 1272.71 283.9C1272.74 283.843 1272.77 283.761 1272.82 283.658C1272.91 283.452 1273.04 283.16 1273.2 282.811C1273.52 282.116 1273.98 281.182 1274.52 280.248C1275.04 279.326 1275.68 278.345 1276.36 277.591C1276.7 277.214 1277.09 276.847 1277.53 276.577C1277.96 276.309 1278.55 276.078 1279.22 276.147C1280.9 276.322 1282 277.621 1282.62 278.367L1282.64 278.384C1282.69 278.444 1282.74 278.501 1282.78 278.555C1283.07 278.898 1283.27 279.136 1283.46 279.312C1283.5 279.273 1283.54 279.227 1283.59 279.174C1283.9 278.828 1284.27 278.314 1284.66 277.689C1285.44 276.45 1286.21 274.952 1286.67 273.952C1286.99 273.27 1287.8 272.976 1288.48 273.295C1289.16 273.614 1289.46 274.425 1289.14 275.107C1288.64 276.171 1287.82 277.777 1286.96 279.141C1286.54 279.819 1286.07 280.481 1285.62 280.993C1285.39 281.248 1285.13 281.503 1284.84 281.705C1284.58 281.894 1284.17 282.131 1283.65 282.158C1282.75 282.205 1282.08 281.734 1281.66 281.361C1281.31 281.04 1280.96 280.625 1280.68 280.289C1280.64 280.237 1280.6 280.187 1280.56 280.139C1279.87 279.318 1279.44 278.945 1279.01 278.868C1278.99 278.875 1278.97 278.886 1278.95 278.902C1278.81 278.985 1278.62 279.147 1278.37 279.417C1277.89 279.957 1277.37 280.742 1276.88 281.601C1276.4 282.448 1275.97 283.309 1275.67 283.963C1275.61 284.087 1275.56 284.204 1275.51 284.31C1278.05 287.226 1282.78 288.492 1287.48 288.257C1289.94 288.133 1292.26 287.6 1294.06 286.773C1295.72 286.011 1296.77 285.08 1297.23 284.147C1297.22 284.064 1297.21 283.977 1297.19 283.885C1296.89 282.013 1296.31 278.295 1294.7 274.84C1292.89 270.936 1289.97 267.716 1284.96 267.716C1281.72 267.716 1279.31 268.972 1277.37 271.069C1275.39 273.214 1273.89 276.26 1272.64 279.814C1272.39 280.523 1271.62 280.896 1270.91 280.646C1270.2 280.395 1269.83 279.617 1270.08 278.907C1271.37 275.227 1273.02 271.769 1275.37 269.219Z" fill="#737885"/>
<rect x="1253.5" y="246.5" width="63" height="63" rx="31.5" stroke="#DAE0E6" shape-rendering="crispEdges"/>
</g>
<g filter="url(#filter13_d_687_78270)">
<rect x="297" y="24" width="64" height="64" rx="32" fill="white" shape-rendering="crispEdges"/>
<path d="M322.904 54.8436C322.815 54.7268 322.697 54.6351 322.562 54.5773C322.427 54.5194 322.279 54.4974 322.133 54.5134C321.987 54.5294 321.848 54.5828 321.729 54.6684C321.61 54.7541 321.514 54.8691 321.453 55.0023L314.093 69.7208C314.026 69.8547 313.994 70.0037 314.001 70.1534C314.007 70.3032 314.052 70.4488 314.131 70.5764C314.209 70.7041 314.319 70.8095 314.45 70.8828C314.581 70.956 314.728 70.9946 314.878 70.9949H325.125C325.291 70.9981 325.455 70.9525 325.595 70.8639C325.735 70.7752 325.846 70.6474 325.914 70.4961C328.123 65.9618 326.785 58.9925 322.904 54.8436Z" fill="url(#paint0_linear_687_78270)"/>
<path d="M328.304 41.4763C326.47 44.2986 325.4 47.5494 325.202 50.9097C325.003 54.2699 325.681 57.6241 327.17 60.643L332.136 70.4961C332.208 70.6426 332.32 70.7659 332.458 70.8524C332.597 70.9389 332.757 70.9851 332.92 70.9859H343.168C343.311 70.974 343.45 70.9281 343.572 70.8519C343.695 70.7757 343.797 70.6715 343.871 70.5478C343.945 70.4241 343.989 70.2846 343.998 70.1408C344.007 69.997 343.982 69.853 343.925 69.7208L329.8 41.4763C329.733 41.3353 329.627 41.2162 329.494 41.1329C329.362 41.0496 329.209 41.0054 329.052 41.0054C328.896 41.0054 328.743 41.0496 328.61 41.1329C328.478 41.2162 328.372 41.3353 328.304 41.4763Z" fill="#2684FF"/>
<rect x="297.5" y="24.5" width="63" height="63" rx="31.5" stroke="#DAE0E6" shape-rendering="crispEdges"/>
</g>
<g filter="url(#filter14_d_687_78270)">
<rect x="-42" y="74" width="64" height="64" rx="32" fill="white" shape-rendering="crispEdges"/>
<path d="M-5.46453 103.022C-3.68578 104.807 -2.23095 107.728 -3.0635 109.464C-5.28979 114.106 -21.9024 122.248 -23.3132 120.838C-24.724 119.43 -16.5633 102.841 -11.9118 100.617C-10.1728 99.786 -7.24614 101.238 -5.45743 103.014C-5.45743 103.014 -5.46027 103.018 -5.46453 103.022Z" fill="#FF8200"/>
<path d="M3.33691 101.062C3.04851 99.9945 2.31115 98.9152 1.21008 98.7876C-0.808788 98.5536 -3.98981 102.116 -3.76249 102.961C-3.53518 103.807 0.960026 105.297 2.63791 104.093C3.50314 103.472 3.62106 102.13 3.33691 101.062ZM-2.91005 91.1929C-1.41118 91.5986 0.104748 92.6296 0.28376 94.1698C0.613369 96.9949 -4.39046 101.448 -5.57819 101.131C-6.76593 100.813 -8.85867 94.5215 -7.16657 92.1715C-6.29424 90.9604 -4.41177 90.7958 -2.91005 91.1929Z" fill="#43B02A"/>
<rect x="-41.5" y="74.5" width="63" height="63" rx="31.5" stroke="#DAE0E6" shape-rendering="crispEdges"/>
</g>
<g filter="url(#filter15_d_687_78270)">
<rect x="-2" y="275" width="64" height="64" rx="32" fill="white" shape-rendering="crispEdges"/>
<path fill-rule="evenodd" clip-rule="evenodd" d="M37.156 306.262H37.8192C37.9139 305.977 37.9139 305.598 37.8192 305.125C37.6297 304.461 37.4402 303.988 37.0612 304.082C36.6822 304.177 36.5875 304.651 36.777 305.409C36.8717 305.693 37.0612 306.072 37.156 306.262Z" fill="#101828"/>
<path fill-rule="evenodd" clip-rule="evenodd" d="M33.6504 306.83C33.9346 306.925 34.1241 307.02 34.2188 306.925C34.2188 306.925 34.2188 306.83 34.2188 306.641C34.0293 306.356 33.7451 306.167 33.4609 305.977C32.7976 305.693 32.0397 305.788 31.4712 306.262C31.2817 306.451 31.0922 306.641 31.0922 306.735C31.0922 306.735 31.0922 306.83 31.187 306.83C31.3765 306.83 31.9449 306.546 32.6082 306.546C32.9871 306.546 33.3661 306.641 33.6504 306.83Z" fill="#101828"/>
<path fill-rule="evenodd" clip-rule="evenodd" d="M33.0819 307.114C32.7029 307.209 32.5134 307.304 32.3239 307.399C32.2292 307.493 32.1344 307.588 32.1344 307.683V307.778H32.2292C32.3239 307.778 32.5134 307.683 32.5134 307.683C33.0819 307.493 33.3661 307.493 33.7451 307.588H34.0293V307.493C33.9346 307.304 33.5556 307.114 33.0819 307.114Z" fill="#101828"/>
<path fill-rule="evenodd" clip-rule="evenodd" d="M36.019 308.441C36.3032 308.536 36.5875 308.536 36.6822 308.346C36.777 308.157 36.6822 307.872 36.398 307.778C36.1137 307.683 35.8295 307.683 35.7348 307.872C35.64 307.967 35.7348 308.251 36.019 308.441Z" fill="#101828"/>
<path fill-rule="evenodd" clip-rule="evenodd" d="M37.7244 306.925C37.5349 306.925 37.3454 307.114 37.3454 307.493C37.3454 307.778 37.5349 308.062 37.7244 308.062C37.9139 308.062 38.1034 307.872 38.1034 307.493C38.1034 307.209 37.9139 306.925 37.7244 306.925Z" fill="#101828"/>
<path fill-rule="evenodd" clip-rule="evenodd" d="M23.3231 312.231C23.2283 312.136 23.2283 312.231 23.1336 312.231C23.0388 312.231 23.0388 312.231 22.9441 312.231C22.7546 312.231 22.6598 312.136 22.5651 312.041C22.4703 311.852 22.4703 311.662 22.5651 311.378C22.5651 311.378 22.5651 311.283 22.6598 311.283C22.8493 310.904 23.1336 310.241 22.7546 309.672C22.4703 309.199 22.0914 308.915 21.6176 308.82C21.1439 308.725 20.6702 308.915 20.3859 309.293C19.9122 309.767 19.8175 310.525 19.9122 310.809C19.9122 310.904 20.007 310.904 20.007 310.904C20.1017 310.904 20.1964 310.809 20.2912 310.62C20.2912 310.62 20.2912 310.62 20.2912 310.525C20.2912 310.43 20.3859 310.241 20.4807 310.051C20.5754 309.862 20.7649 309.767 21.0492 309.672C21.2387 309.578 21.5229 309.672 21.7124 309.767C21.9966 309.957 22.1861 310.43 21.9966 310.809C21.9019 310.999 21.8071 311.378 21.8071 311.662C21.9019 312.325 22.2809 312.515 22.5651 312.61C22.9441 312.61 23.1336 312.42 23.2283 312.325C23.4178 312.231 23.4178 312.231 23.3231 312.231Z" fill="#101828"/>
<path d="M43.0302 310.999C43.0302 310.999 42.9354 310.62 42.8407 310.241C42.746 309.862 42.6512 309.578 42.6512 309.578C43.1249 308.915 43.1249 308.251 43.0302 307.872C42.9354 307.399 42.746 307.02 42.367 306.641C41.988 306.262 41.23 305.883 40.1878 305.598C40.0931 305.598 39.7141 305.409 39.6193 305.409C39.6193 305.409 39.6193 304.082 39.5246 303.514C39.5246 303.135 39.4299 302.472 39.2404 301.903C39.0509 301.051 38.5771 300.387 38.1034 299.914C39.5246 298.492 40.3773 296.882 40.3773 295.555C40.3773 292.997 37.156 292.145 33.2714 293.755L32.4187 294.134L30.9027 292.618C26.4497 288.734 12.3325 304.272 16.8803 308.157L17.8278 309.009C17.5436 309.672 17.4488 310.43 17.5436 311.283C17.6383 312.325 18.2068 313.368 19.0595 314.126C19.9122 314.884 20.9544 315.357 21.9966 315.357C23.702 319.431 27.7761 321.895 32.4187 321.989C37.4402 322.179 41.7038 319.81 43.4092 315.547C43.5039 315.262 43.9777 313.936 43.9777 312.704C44.1671 311.567 43.5039 310.999 43.0302 310.999ZM22.4703 314.22C22.2809 314.22 22.1861 314.22 21.9966 314.22C20.4807 314.22 18.87 312.799 18.6805 311.188C18.491 309.388 19.4385 308.062 21.0492 307.683C21.2387 307.683 21.5229 307.588 21.7124 307.588C22.6598 307.683 23.9863 308.346 24.2705 310.336C24.5548 312.136 24.1758 313.936 22.4703 314.22ZM20.8597 306.641C19.8175 306.83 18.9648 307.399 18.3963 308.157C18.112 307.872 17.4488 307.399 17.3541 307.114C16.5014 305.504 18.3015 302.282 19.5332 300.482C22.6598 296.029 27.5866 292.618 29.8605 293.281C30.2395 293.376 31.4712 294.797 31.4712 294.797C31.4712 294.797 29.1973 296.029 27.1129 297.829C24.2705 300.008 22.0914 303.23 20.8597 306.641ZM36.777 313.557C36.777 313.462 36.777 313.368 36.777 313.368C36.777 313.368 34.4083 313.747 32.1344 312.894C32.4187 312.136 32.9871 312.42 34.0293 312.42C35.8295 312.515 37.3454 312.231 38.5771 311.946C39.6193 311.662 40.9458 311.094 41.988 310.241C42.367 310.999 42.4617 311.852 42.4617 311.852C42.4617 311.852 42.746 311.757 42.9354 311.946C43.1249 312.041 43.3144 312.325 43.2197 313.083C43.0302 314.41 42.4617 315.452 41.5143 316.494C40.9458 317.157 40.2826 317.631 39.4298 318.01C39.0509 318.2 38.5771 318.389 38.1034 318.579C34.5031 319.716 30.9027 318.484 29.7658 315.736C29.671 315.547 29.5763 315.357 29.5763 315.073C29.1026 313.273 29.4815 311.094 30.808 309.767C30.9027 309.672 30.9975 309.578 30.9975 309.483C30.9975 309.388 30.9027 309.293 30.9027 309.199C30.429 308.536 28.8183 307.399 29.1973 305.125C29.3868 303.514 30.808 302.377 32.1344 302.472H32.4187C32.9871 302.472 33.4609 302.567 33.9346 302.567C34.6926 302.567 35.4505 302.472 36.2085 301.809C36.4927 301.619 36.6822 301.335 37.0612 301.335H37.4402C37.6297 301.335 37.8192 301.43 38.0087 301.524C38.6719 301.998 38.7666 303.04 38.7666 303.798C38.7666 304.272 38.8614 305.314 38.8614 305.598C38.8614 306.262 39.0509 306.451 39.4298 306.546C39.6193 306.641 39.8088 306.641 40.0931 306.735C40.9458 307.02 41.5143 307.209 41.7985 307.588C41.988 307.778 42.0827 307.967 42.0827 308.251C42.1775 309.009 41.5143 309.957 39.7141 310.809C37.7244 311.757 35.261 311.946 33.6504 311.757C33.5556 311.757 33.0819 311.662 33.0819 311.662C31.7554 311.473 30.9975 313.178 31.7554 314.41C32.2292 315.168 33.6504 315.641 35.0715 315.641C38.2929 315.641 40.7563 314.22 41.7038 313.083C41.7038 313.083 41.7038 313.083 41.7985 312.989C41.7985 312.894 41.7985 312.894 41.7038 312.894C40.9458 313.368 37.6297 315.452 34.0293 314.884C34.0293 314.884 33.5556 314.789 33.1766 314.694C32.8924 314.599 32.2292 314.22 32.1344 313.557C34.8821 314.41 36.777 313.557 36.777 313.557ZM26.6392 300.482C27.7761 299.156 29.1026 298.113 30.3343 297.45C30.3343 297.45 30.429 297.45 30.429 297.545C30.3343 297.735 30.1448 298.113 30.05 298.398C30.05 298.398 30.05 298.492 30.1448 298.492C30.9027 298.019 32.2292 297.45 33.3661 297.356C33.4609 297.356 33.4609 297.45 33.3661 297.45C33.1766 297.545 32.9871 297.735 32.8924 297.924V298.019C33.7451 298.019 34.8821 298.303 35.64 298.777C35.7348 298.777 35.64 298.871 35.64 298.871C34.5031 298.587 32.6082 298.398 30.7132 298.871C28.9131 299.25 27.5866 299.914 26.6392 300.482C26.6392 300.672 26.5444 300.577 26.6392 300.482Z" fill="#101828"/>
<rect x="-1.5" y="275.5" width="63" height="63" rx="31.5" stroke="#DAE0E6" shape-rendering="crispEdges"/>
</g>
<g filter="url(#filter16_d_687_78270)">
<rect x="1125" y="188" width="88" height="88" rx="44" fill="white" shape-rendering="crispEdges"/>
<path d="M1169.03 220.851L1158.51 227.574L1169.03 234.297L1158.51 241.02L1148 234.241L1158.51 227.518L1148 220.851L1158.51 214.128L1169.03 220.851ZM1158.46 243.149L1168.97 236.426L1179.49 243.149L1168.97 249.872L1158.46 243.149ZM1169.03 234.241L1179.54 227.518L1169.03 220.851L1179.49 214.128L1190 220.851L1179.49 227.574L1190 234.297L1179.49 241.02L1169.03 234.241Z" fill="#0061FF"/>
<rect x="1125.5" y="188.5" width="87" height="87" rx="43.5" stroke="#DAE0E6" shape-rendering="crispEdges"/>
</g>
<g filter="url(#filter17_d_687_78270)">
<rect x="1353" y="199" width="88" height="88" rx="44" fill="white" shape-rendering="crispEdges"/>
<path fill-rule="evenodd" clip-rule="evenodd" d="M1379.46 254.267L1385.94 249.319C1389.37 253.798 1393.03 255.862 1397.09 255.862C1401.14 255.862 1404.69 253.822 1407.98 249.378L1414.54 254.208C1409.8 260.615 1403.91 264 1397.09 264C1390.3 264 1384.35 260.639 1379.46 254.267Z" fill="url(#paint1_linear_687_78270)"/>
<path fill-rule="evenodd" clip-rule="evenodd" d="M1397.07 232.762L1385.55 242.671L1380.23 236.506L1397.1 222L1413.84 236.517L1408.49 242.66L1397.07 232.762Z" fill="url(#paint2_linear_687_78270)"/>
<rect x="1353.5" y="199.5" width="87" height="87" rx="43.5" stroke="#DAE0E6" shape-rendering="crispEdges"/>
</g>
<g filter="url(#filter18_d_687_78270)">
<rect x="1369" y="13" width="88" height="88" rx="44" fill="white" shape-rendering="crispEdges"/>
<path fill-rule="evenodd" clip-rule="evenodd" d="M1424.87 58.1395C1419.82 58.1395 1415.73 62.2219 1415.73 67.258C1415.73 72.2938 1419.82 76.3763 1424.87 76.3763C1429.91 76.3763 1434 72.2938 1434 67.258C1434 62.2219 1429.91 58.1395 1424.87 58.1395ZM1401.13 58.1403C1396.09 58.1403 1392 62.2219 1392 67.258C1392 72.2938 1396.09 76.3763 1401.13 76.3763C1406.18 76.3763 1410.27 72.2938 1410.27 67.258C1410.27 62.2219 1406.18 58.1403 1401.13 58.1403ZM1422.13 46.7415C1422.13 51.7777 1418.04 55.8605 1413 55.8605C1407.96 55.8605 1403.87 51.7777 1403.87 46.7415C1403.87 41.7063 1407.96 37.6235 1413 37.6235C1418.04 37.6235 1422.13 41.7063 1422.13 46.7415Z" fill="#F06A6A"/>
<rect x="1369.5" y="13.5" width="87" height="87" rx="43.5" stroke="#DAE0E6" shape-rendering="crispEdges"/>
</g>
<g filter="url(#filter19_d_687_78270)">
<rect x="501" y="220" width="120" height="120" rx="60" fill="white" shape-rendering="crispEdges"/>
<path fill-rule="evenodd" clip-rule="evenodd" d="M545.781 257.384L560.998 255.79L576.216 257.384L587.998 273.056L560.999 304.211L534 273.056L545.781 257.384Z" fill="#FDB300"/>
<path fill-rule="evenodd" clip-rule="evenodd" d="M544.936 273.244L560.999 304.211L534 273.244H544.936Z" fill="#EA6C00"/>
<path fill-rule="evenodd" clip-rule="evenodd" d="M577.065 273.244L560.999 304.211L588 273.244H577.065Z" fill="#EA6C00"/>
<path fill-rule="evenodd" clip-rule="evenodd" d="M544.691 273.244H576.753L560.722 304.211L544.691 273.244Z" fill="#FDAD00"/>
<path fill-rule="evenodd" clip-rule="evenodd" d="M560.441 255.79L545.52 257.401L544.691 273.244L560.441 255.79Z" fill="#FDD231"/>
<path fill-rule="evenodd" clip-rule="evenodd" d="M560.998 255.79L575.916 257.401L576.753 273.244L560.998 255.79Z" fill="#FDD231"/>
<path fill-rule="evenodd" clip-rule="evenodd" d="M588 273.244L576.187 257.476L577.035 273.241L588 273.244Z" fill="#FDAD00"/>
<path fill-rule="evenodd" clip-rule="evenodd" d="M534 273.244L545.812 257.476L544.964 273.241L534 273.244Z" fill="#FDAD00"/>
<path fill-rule="evenodd" clip-rule="evenodd" d="M560.722 255.79L544.691 273.244H576.753L560.722 255.79Z" fill="#FEEEB7"/>
<rect x="501.5" y="220.5" width="119" height="119" rx="59.5" stroke="#DAE0E6" shape-rendering="crispEdges"/>
</g>
<g filter="url(#filter20_d_687_78270)">
<rect x="740" y="13" width="120" height="120" rx="60" fill="white" shape-rendering="crispEdges"/>
<path d="M797.113 50.7767L776.98 59.1854C775.861 59.6531 775.872 61.2585 776.999 61.7093L797.216 69.8015C798.992 70.5126 800.97 70.5126 802.746 69.8015L822.963 61.7089C824.09 61.2585 824.102 59.6534 822.982 59.1857L802.849 50.7764C801.013 50.0092 798.95 50.0095 797.113 50.7767Z" fill="#FCB400"/>
<path d="M801.775 74.2201V94.436C801.775 95.3973 802.735 96.0559 803.621 95.7016L826.148 86.8755C826.4 86.775 826.615 86.6006 826.767 86.3749C826.919 86.1492 827 85.8827 827 85.6099V65.3943C827 64.4327 826.039 63.7743 825.154 64.1286L802.626 72.9548C802.375 73.0554 802.16 73.2298 802.008 73.4555C801.856 73.6811 801.775 73.9473 801.775 74.2201Z" fill="#18BFFF"/>
<path d="M796.514 75.2625L789.828 78.5209L789.15 78.8521L775.036 85.6778C774.142 86.1135 773 85.4554 773 84.4522V65.4782C773 65.1153 773.184 64.802 773.432 64.5663C773.533 64.4644 773.648 64.3772 773.773 64.3075C774.11 64.1032 774.591 64.0487 775 64.212L796.402 72.7713C797.49 73.207 797.575 74.7453 796.514 75.2625Z" fill="#F82B60"/>
<path d="M796.514 75.2625L789.828 78.5209L773.432 64.5663C773.533 64.4644 773.648 64.3772 773.773 64.3075C774.11 64.1032 774.591 64.0487 775 64.212L796.402 72.7713C797.49 73.207 797.575 74.7453 796.514 75.2625Z" fill="black" fill-opacity="0.25"/>
<rect x="740.5" y="13.5" width="119" height="119" rx="59.5" stroke="#DAE0E6" shape-rendering="crispEdges"/>
</g>
<g filter="url(#filter21_d_687_78270)">
<rect x="666" y="160" width="120" height="120" rx="60" fill="white" shape-rendering="crispEdges"/>
<path fill-rule="evenodd" clip-rule="evenodd" d="M746.589 193.018H705.419C701.877 193.018 699.005 195.886 699 199.428V240.538C698.993 242.245 699.666 243.884 700.871 245.094C702.076 246.303 703.712 246.983 705.419 246.983H746.589C748.295 246.98 749.929 246.3 751.132 245.09C752.335 243.881 753.007 242.243 753 240.538V199.428C752.995 195.89 750.128 193.022 746.589 193.018ZM722.289 231.887C722.286 232.457 722.057 233.003 721.651 233.404C721.245 233.805 720.696 234.028 720.126 234.024H711.129C709.952 234.019 709.001 233.063 709.001 231.887V205.112C709.001 203.935 709.952 202.98 711.129 202.975H720.126C721.304 202.98 722.258 203.934 722.263 205.112L722.289 231.887ZM743.051 219.594C743.051 220.165 742.823 220.712 742.416 221.114C742.01 221.515 741.46 221.737 740.888 221.731H731.891C730.713 221.726 729.759 220.772 729.755 219.594V205.112C729.759 203.934 730.713 202.98 731.891 202.975H740.888C742.065 202.98 743.017 203.935 743.017 205.112L743.051 219.594Z" fill="url(#paint3_linear_687_78270)"/>
<rect x="666.5" y="160.5" width="119" height="119" rx="59.5" stroke="#DAE0E6" shape-rendering="crispEdges"/>
</g>
<g filter="url(#filter22_d_687_78270)">
<rect x="1225" y="81" width="120" height="120" rx="60" fill="white" shape-rendering="crispEdges"/>
<path d="M1295.82 114L1293.33 137.799L1289.07 117.734L1275.65 120.565L1279.86 140.631L1260.55 144.734L1263.99 160.737L1297.99 168L1305.77 150.561L1309.45 115.436L1295.82 114ZM1285.06 148.55C1284.37 149.207 1283.47 149.125 1282.44 148.796C1281.46 148.468 1281.05 147.319 1281.38 145.842C1281.67 144.775 1282.93 144.611 1283.63 144.611C1283.87 144.611 1284.12 144.652 1284.37 144.775C1284.82 144.98 1285.59 145.432 1285.76 146.088C1286 147.073 1285.76 147.894 1285.06 148.55ZM1294.92 149.617C1294.39 150.52 1293.08 150.643 1291.73 149.986C1290.83 149.535 1290.83 148.468 1290.95 147.771C1290.99 147.401 1291.16 147.032 1291.4 146.745C1291.73 146.334 1292.26 145.801 1292.84 145.801C1293.86 145.76 1294.68 146.211 1295.17 147.032C1295.66 147.853 1295.41 148.755 1294.92 149.617Z" fill="#00CCBC"/>
<rect x="1225.5" y="81.5" width="119" height="119" rx="59.5" stroke="#DAE0E6" shape-rendering="crispEdges"/>
</g>
<g filter="url(#filter23_d_687_78270)">
<rect x="986" y="24" width="120" height="120" rx="60" fill="white" shape-rendering="crispEdges"/>
<path d="M1034.84 62.8204H1062.98V104.695H1034.84V62.8204Z" fill="white"/>
<path d="M1041.8 57C1029.19 57 1019 67.1856 1019 79.7964V111H1050.2C1062.81 111 1073 100.814 1073 88.2036V57H1041.8ZM1060.23 66.5389C1060.23 70.7425 1056.83 73.976 1052.79 73.976H1044.71V80.4431H1055.54V87.8802H1044.87V103.401H1035.98V64.5988H1044.71V71.5509C1045.03 67.6707 1048.26 64.5988 1052.14 64.5988H1060.23V66.5389Z" fill="#0075DD"/>
<rect x="986.5" y="24.5" width="119" height="119" rx="59.5" stroke="#DAE0E6" shape-rendering="crispEdges"/>
</g>
<defs>
<filter id="filter0_d_687_78270" x="135" y="233" width="124" height="124" filterUnits="userSpaceOnUse" color-interpolation-filters="sRGB">
<feFlood flood-opacity="0" result="BackgroundImageFix"/>
<feColorMatrix in="SourceAlpha" type="matrix" values="0 0 0 0 0 0 0 0 0 0 0 0 0 0 0 0 0 0 127 0" result="hardAlpha"/>
<feOffset dy="1"/>
<feGaussianBlur stdDeviation="1"/>
<feComposite in2="hardAlpha" operator="out"/>
<feColorMatrix type="matrix" values="0 0 0 0 0.0627451 0 0 0 0 0.0941176 0 0 0 0 0.156863 0 0 0 0.04 0"/>
<feBlend mode="normal" in2="BackgroundImageFix" result="effect1_dropShadow_687_78270"/>
<feBlend mode="normal" in="SourceGraphic" in2="effect1_dropShadow_687_78270" result="shape"/>
</filter>
<filter id="filter1_d_687_78270" x="387" y="72" width="124" height="124" filterUnits="userSpaceOnUse" color-interpolation-filters="sRGB">
<feFlood flood-opacity="0" result="BackgroundImageFix"/>
<feColorMatrix in="SourceAlpha" type="matrix" values="0 0 0 0 0 0 0 0 0 0 0 0 0 0 0 0 0 0 127 0" result="hardAlpha"/>
<feOffset dy="1"/>
<feGaussianBlur stdDeviation="1"/>
<feComposite in2="hardAlpha" operator="out"/>
<feColorMatrix type="matrix" values="0 0 0 0 0.0627451 0 0 0 0 0.0941176 0 0 0 0 0.156863 0 0 0 0.04 0"/>
<feBlend mode="normal" in2="BackgroundImageFix" result="effect1_dropShadow_687_78270"/>
<feBlend mode="normal" in="SourceGraphic" in2="effect1_dropShadow_687_78270" result="shape"/>
</filter>
<filter id="filter2_d_687_78270" x="83" y="2" width="124" height="124" filterUnits="userSpaceOnUse" color-interpolation-filters="sRGB">
<feFlood flood-opacity="0" result="BackgroundImageFix"/>
<feColorMatrix in="SourceAlpha" type="matrix" values="0 0 0 0 0 0 0 0 0 0 0 0 0 0 0 0 0 0 127 0" result="hardAlpha"/>
<feOffset dy="1"/>
<feGaussianBlur stdDeviation="1"/>
<feComposite in2="hardAlpha" operator="out"/>
<feColorMatrix type="matrix" values="0 0 0 0 0.0627451 0 0 0 0 0.0941176 0 0 0 0 0.156863 0 0 0 0.04 0"/>
<feBlend mode="normal" in2="BackgroundImageFix" result="effect1_dropShadow_687_78270"/>
<feBlend mode="normal" in="SourceGraphic" in2="effect1_dropShadow_687_78270" result="shape"/>
</filter>
<filter id="filter3_d_687_78270" x="212" y="108" width="92" height="92" filterUnits="userSpaceOnUse" color-interpolation-filters="sRGB">
<feFlood flood-opacity="0" result="BackgroundImageFix"/>
<feColorMatrix in="SourceAlpha" type="matrix" values="0 0 0 0 0 0 0 0 0 0 0 0 0 0 0 0 0 0 127 0" result="hardAlpha"/>
<feOffset dy="1"/>
<feGaussianBlur stdDeviation="1"/>
<feComposite in2="hardAlpha" operator="out"/>
<feColorMatrix type="matrix" values="0 0 0 0 0.0627451 0 0 0 0 0.0941176 0 0 0 0 0.156863 0 0 0 0.04 0"/>
<feBlend mode="normal" in2="BackgroundImageFix" result="effect1_dropShadow_687_78270"/>
<feBlend mode="normal" in="SourceGraphic" in2="effect1_dropShadow_687_78270" result="shape"/>
</filter>
<filter id="filter4_d_687_78270" x="18" y="145" width="92" height="92" filterUnits="userSpaceOnUse" color-interpolation-filters="sRGB">
<feFlood flood-opacity="0" result="BackgroundImageFix"/>
<feColorMatrix in="SourceAlpha" type="matrix" values="0 0 0 0 0 0 0 0 0 0 0 0 0 0 0 0 0 0 127 0" result="hardAlpha"/>
<feOffset dy="1"/>
<feGaussianBlur stdDeviation="1"/>
<feComposite in2="hardAlpha" operator="out"/>
<feColorMatrix type="matrix" values="0 0 0 0 0.0627451 0 0 0 0 0.0941176 0 0 0 0 0.156863 0 0 0 0.04 0"/>
<feBlend mode="normal" in2="BackgroundImageFix" result="effect1_dropShadow_687_78270"/>
<feBlend mode="normal" in="SourceGraphic" in2="effect1_dropShadow_687_78270" result="shape"/>
</filter>
<filter id="filter5_d_687_78270" x="311" y="206" width="92" height="92" filterUnits="userSpaceOnUse" color-interpolation-filters="sRGB">
<feFlood flood-opacity="0" result="BackgroundImageFix"/>
<feColorMatrix in="SourceAlpha" type="matrix" values="0 0 0 0 0 0 0 0 0 0 0 0 0 0 0 0 0 0 127 0" result="hardAlpha"/>
<feOffset dy="1"/>
<feGaussianBlur stdDeviation="1"/>
<feComposite in2="hardAlpha" operator="out"/>
<feColorMatrix type="matrix" values="0 0 0 0 0.0627451 0 0 0 0 0.0941176 0 0 0 0 0.156863 0 0 0 0.04 0"/>
<feBlend mode="normal" in2="BackgroundImageFix" result="effect1_dropShadow_687_78270"/>
<feBlend mode="normal" in="SourceGraphic" in2="effect1_dropShadow_687_78270" result="shape"/>
</filter>
<filter id="filter6_d_687_78270" x="531" y="0" width="92" height="92" filterUnits="userSpaceOnUse" color-interpolation-filters="sRGB">
<feFlood flood-opacity="0" result="BackgroundImageFix"/>
<feColorMatrix in="SourceAlpha" type="matrix" values="0 0 0 0 0 0 0 0 0 0 0 0 0 0 0 0 0 0 127 0" result="hardAlpha"/>
<feOffset dy="1"/>
<feGaussianBlur stdDeviation="1"/>
<feComposite in2="hardAlpha" operator="out"/>
<feColorMatrix type="matrix" values="0 0 0 0 0.0627451 0 0 0 0 0.0941176 0 0 0 0 0.156863 0 0 0 0.04 0"/>
<feBlend mode="normal" in2="BackgroundImageFix" result="effect1_dropShadow_687_78270"/>
<feBlend mode="normal" in="SourceGraphic" in2="effect1_dropShadow_687_78270" result="shape"/>
</filter>
<filter id="filter7_d_687_78270" x="825" y="234" width="92" height="92" filterUnits="userSpaceOnUse" color-interpolation-filters="sRGB">
<feFlood flood-opacity="0" result="BackgroundImageFix"/>
<feColorMatrix in="SourceAlpha" type="matrix" values="0 0 0 0 0 0 0 0 0 0 0 0 0 0 0 0 0 0 127 0" result="hardAlpha"/>
<feOffset dy="1"/>
<feGaussianBlur stdDeviation="1"/>
<feComposite in2="hardAlpha" operator="out"/>
<feColorMatrix type="matrix" values="0 0 0 0 0.0627451 0 0 0 0 0.0941176 0 0 0 0 0.156863 0 0 0 0.04 0"/>
<feBlend mode="normal" in2="BackgroundImageFix" result="effect1_dropShadow_687_78270"/>
<feBlend mode="normal" in="SourceGraphic" in2="effect1_dropShadow_687_78270" result="shape"/>
</filter>
<filter id="filter8_d_687_78270" x="887" y="120" width="92" height="92" filterUnits="userSpaceOnUse" color-interpolation-filters="sRGB">
<feFlood flood-opacity="0" result="BackgroundImageFix"/>
<feColorMatrix in="SourceAlpha" type="matrix" values="0 0 0 0 0 0 0 0 0 0 0 0 0 0 0 0 0 0 127 0" result="hardAlpha"/>
<feOffset dy="1"/>
<feGaussianBlur stdDeviation="1"/>
<feComposite in2="hardAlpha" operator="out"/>
<feColorMatrix type="matrix" values="0 0 0 0 0.0627451 0 0 0 0 0.0941176 0 0 0 0 0.156863 0 0 0 0.04 0"/>
<feBlend mode="normal" in2="BackgroundImageFix" result="effect1_dropShadow_687_78270"/>
<feBlend mode="normal" in="SourceGraphic" in2="effect1_dropShadow_687_78270" result="shape"/>
</filter>
<filter id="filter9_d_687_78270" x="583" y="122" width="68" height="68" filterUnits="userSpaceOnUse" color-interpolation-filters="sRGB">
<feFlood flood-opacity="0" result="BackgroundImageFix"/>
<feColorMatrix in="SourceAlpha" type="matrix" values="0 0 0 0 0 0 0 0 0 0 0 0 0 0 0 0 0 0 127 0" result="hardAlpha"/>
<feOffset dy="1"/>
<feGaussianBlur stdDeviation="1"/>
<feComposite in2="hardAlpha" operator="out"/>
<feColorMatrix type="matrix" values="0 0 0 0 0.0627451 0 0 0 0 0.0941176 0 0 0 0 0.156863 0 0 0 0.04 0"/>
<feBlend mode="normal" in2="BackgroundImageFix" result="effect1_dropShadow_687_78270"/>
<feBlend mode="normal" in="SourceGraphic" in2="effect1_dropShadow_687_78270" result="shape"/>
</filter>
<filter id="filter10_d_687_78270" x="999" y="203" width="68" height="68" filterUnits="userSpaceOnUse" color-interpolation-filters="sRGB">
<feFlood flood-opacity="0" result="BackgroundImageFix"/>
<feColorMatrix in="SourceAlpha" type="matrix" values="0 0 0 0 0 0 0 0 0 0 0 0 0 0 0 0 0 0 127 0" result="hardAlpha"/>
<feOffset dy="1"/>
<feGaussianBlur stdDeviation="1"/>
<feComposite in2="hardAlpha" operator="out"/>
<feColorMatrix type="matrix" values="0 0 0 0 0.0627451 0 0 0 0 0.0941176 0 0 0 0 0.156863 0 0 0 0.04 0"/>
<feBlend mode="normal" in2="BackgroundImageFix" result="effect1_dropShadow_687_78270"/>
<feBlend mode="normal" in="SourceGraphic" in2="effect1_dropShadow_687_78270" result="shape"/>
</filter>
<filter id="filter11_d_687_78270" x="1139" y="23" width="68" height="68" filterUnits="userSpaceOnUse" color-interpolation-filters="sRGB">
<feFlood flood-opacity="0" result="BackgroundImageFix"/>
<feColorMatrix in="SourceAlpha" type="matrix" values="0 0 0 0 0 0 0 0 0 0 0 0 0 0 0 0 0 0 127 0" result="hardAlpha"/>
<feOffset dy="1"/>
<feGaussianBlur stdDeviation="1"/>
<feComposite in2="hardAlpha" operator="out"/>
<feColorMatrix type="matrix" values="0 0 0 0 0.0627451 0 0 0 0 0.0941176 0 0 0 0 0.156863 0 0 0 0.04 0"/>
<feBlend mode="normal" in2="BackgroundImageFix" result="effect1_dropShadow_687_78270"/>
<feBlend mode="normal" in="SourceGraphic" in2="effect1_dropShadow_687_78270" result="shape"/>
</filter>
<filter id="filter12_d_687_78270" x="1251" y="245" width="68" height="68" filterUnits="userSpaceOnUse" color-interpolation-filters="sRGB">
<feFlood flood-opacity="0" result="BackgroundImageFix"/>
<feColorMatrix in="SourceAlpha" type="matrix" values="0 0 0 0 0 0 0 0 0 0 0 0 0 0 0 0 0 0 127 0" result="hardAlpha"/>
<feOffset dy="1"/>
<feGaussianBlur stdDeviation="1"/>
<feComposite in2="hardAlpha" operator="out"/>
<feColorMatrix type="matrix" values="0 0 0 0 0.0627451 0 0 0 0 0.0941176 0 0 0 0 0.156863 0 0 0 0.04 0"/>
<feBlend mode="normal" in2="BackgroundImageFix" result="effect1_dropShadow_687_78270"/>
<feBlend mode="normal" in="SourceGraphic" in2="effect1_dropShadow_687_78270" result="shape"/>
</filter>
<filter id="filter13_d_687_78270" x="295" y="23" width="68" height="68" filterUnits="userSpaceOnUse" color-interpolation-filters="sRGB">
<feFlood flood-opacity="0" result="BackgroundImageFix"/>
<feColorMatrix in="SourceAlpha" type="matrix" values="0 0 0 0 0 0 0 0 0 0 0 0 0 0 0 0 0 0 127 0" result="hardAlpha"/>
<feOffset dy="1"/>
<feGaussianBlur stdDeviation="1"/>
<feComposite in2="hardAlpha" operator="out"/>
<feColorMatrix type="matrix" values="0 0 0 0 0.0627451 0 0 0 0 0.0941176 0 0 0 0 0.156863 0 0 0 0.04 0"/>
<feBlend mode="normal" in2="BackgroundImageFix" result="effect1_dropShadow_687_78270"/>
<feBlend mode="normal" in="SourceGraphic" in2="effect1_dropShadow_687_78270" result="shape"/>
</filter>
<filter id="filter14_d_687_78270" x="-44" y="73" width="68" height="68" filterUnits="userSpaceOnUse" color-interpolation-filters="sRGB">
<feFlood flood-opacity="0" result="BackgroundImageFix"/>
<feColorMatrix in="SourceAlpha" type="matrix" values="0 0 0 0 0 0 0 0 0 0 0 0 0 0 0 0 0 0 127 0" result="hardAlpha"/>
<feOffset dy="1"/>
<feGaussianBlur stdDeviation="1"/>
<feComposite in2="hardAlpha" operator="out"/>
<feColorMatrix type="matrix" values="0 0 0 0 0.0627451 0 0 0 0 0.0941176 0 0 0 0 0.156863 0 0 0 0.04 0"/>
<feBlend mode="normal" in2="BackgroundImageFix" result="effect1_dropShadow_687_78270"/>
<feBlend mode="normal" in="SourceGraphic" in2="effect1_dropShadow_687_78270" result="shape"/>
</filter>
<filter id="filter15_d_687_78270" x="-4" y="274" width="68" height="68" filterUnits="userSpaceOnUse" color-interpolation-filters="sRGB">
<feFlood flood-opacity="0" result="BackgroundImageFix"/>
<feColorMatrix in="SourceAlpha" type="matrix" values="0 0 0 0 0 0 0 0 0 0 0 0 0 0 0 0 0 0 127 0" result="hardAlpha"/>
<feOffset dy="1"/>
<feGaussianBlur stdDeviation="1"/>
<feComposite in2="hardAlpha" operator="out"/>
<feColorMatrix type="matrix" values="0 0 0 0 0.0627451 0 0 0 0 0.0941176 0 0 0 0 0.156863 0 0 0 0.04 0"/>
<feBlend mode="normal" in2="BackgroundImageFix" result="effect1_dropShadow_687_78270"/>
<feBlend mode="normal" in="SourceGraphic" in2="effect1_dropShadow_687_78270" result="shape"/>
</filter>
<filter id="filter16_d_687_78270" x="1123" y="187" width="92" height="92" filterUnits="userSpaceOnUse" color-interpolation-filters="sRGB">
<feFlood flood-opacity="0" result="BackgroundImageFix"/>
<feColorMatrix in="SourceAlpha" type="matrix" values="0 0 0 0 0 0 0 0 0 0 0 0 0 0 0 0 0 0 127 0" result="hardAlpha"/>
<feOffset dy="1"/>
<feGaussianBlur stdDeviation="1"/>
<feComposite in2="hardAlpha" operator="out"/>
<feColorMatrix type="matrix" values="0 0 0 0 0.0627451 0 0 0 0 0.0941176 0 0 0 0 0.156863 0 0 0 0.04 0"/>
<feBlend mode="normal" in2="BackgroundImageFix" result="effect1_dropShadow_687_78270"/>
<feBlend mode="normal" in="SourceGraphic" in2="effect1_dropShadow_687_78270" result="shape"/>
</filter>
<filter id="filter17_d_687_78270" x="1351" y="198" width="92" height="92" filterUnits="userSpaceOnUse" color-interpolation-filters="sRGB">
<feFlood flood-opacity="0" result="BackgroundImageFix"/>
<feColorMatrix in="SourceAlpha" type="matrix" values="0 0 0 0 0 0 0 0 0 0 0 0 0 0 0 0 0 0 127 0" result="hardAlpha"/>
<feOffset dy="1"/>
<feGaussianBlur stdDeviation="1"/>
<feComposite in2="hardAlpha" operator="out"/>
<feColorMatrix type="matrix" values="0 0 0 0 0.0627451 0 0 0 0 0.0941176 0 0 0 0 0.156863 0 0 0 0.04 0"/>
<feBlend mode="normal" in2="BackgroundImageFix" result="effect1_dropShadow_687_78270"/>
<feBlend mode="normal" in="SourceGraphic" in2="effect1_dropShadow_687_78270" result="shape"/>
</filter>
<filter id="filter18_d_687_78270" x="1367" y="12" width="92" height="92" filterUnits="userSpaceOnUse" color-interpolation-filters="sRGB">
<feFlood flood-opacity="0" result="BackgroundImageFix"/>
<feColorMatrix in="SourceAlpha" type="matrix" values="0 0 0 0 0 0 0 0 0 0 0 0 0 0 0 0 0 0 127 0" result="hardAlpha"/>
<feOffset dy="1"/>
<feGaussianBlur stdDeviation="1"/>
<feComposite in2="hardAlpha" operator="out"/>
<feColorMatrix type="matrix" values="0 0 0 0 0.0627451 0 0 0 0 0.0941176 0 0 0 0 0.156863 0 0 0 0.04 0"/>
<feBlend mode="normal" in2="BackgroundImageFix" result="effect1_dropShadow_687_78270"/>
<feBlend mode="normal" in="SourceGraphic" in2="effect1_dropShadow_687_78270" result="shape"/>
</filter>
<filter id="filter19_d_687_78270" x="499" y="219" width="124" height="124" filterUnits="userSpaceOnUse" color-interpolation-filters="sRGB">
<feFlood flood-opacity="0" result="BackgroundImageFix"/>
<feColorMatrix in="SourceAlpha" type="matrix" values="0 0 0 0 0 0 0 0 0 0 0 0 0 0 0 0 0 0 127 0" result="hardAlpha"/>
<feOffset dy="1"/>
<feGaussianBlur stdDeviation="1"/>
<feComposite in2="hardAlpha" operator="out"/>
<feColorMatrix type="matrix" values="0 0 0 0 0.0627451 0 0 0 0 0.0941176 0 0 0 0 0.156863 0 0 0 0.04 0"/>
<feBlend mode="normal" in2="BackgroundImageFix" result="effect1_dropShadow_687_78270"/>
<feBlend mode="normal" in="SourceGraphic" in2="effect1_dropShadow_687_78270" result="shape"/>
</filter>
<filter id="filter20_d_687_78270" x="738" y="12" width="124" height="124" filterUnits="userSpaceOnUse" color-interpolation-filters="sRGB">
<feFlood flood-opacity="0" result="BackgroundImageFix"/>
<feColorMatrix in="SourceAlpha" type="matrix" values="0 0 0 0 0 0 0 0 0 0 0 0 0 0 0 0 0 0 127 0" result="hardAlpha"/>
<feOffset dy="1"/>
<feGaussianBlur stdDeviation="1"/>
<feComposite in2="hardAlpha" operator="out"/>
<feColorMatrix type="matrix" values="0 0 0 0 0.0627451 0 0 0 0 0.0941176 0 0 0 0 0.156863 0 0 0 0.04 0"/>
<feBlend mode="normal" in2="BackgroundImageFix" result="effect1_dropShadow_687_78270"/>
<feBlend mode="normal" in="SourceGraphic" in2="effect1_dropShadow_687_78270" result="shape"/>
</filter>
<filter id="filter21_d_687_78270" x="664" y="159" width="124" height="124" filterUnits="userSpaceOnUse" color-interpolation-filters="sRGB">
<feFlood flood-opacity="0" result="BackgroundImageFix"/>
<feColorMatrix in="SourceAlpha" type="matrix" values="0 0 0 0 0 0 0 0 0 0 0 0 0 0 0 0 0 0 127 0" result="hardAlpha"/>
<feOffset dy="1"/>
<feGaussianBlur stdDeviation="1"/>
<feComposite in2="hardAlpha" operator="out"/>
<feColorMatrix type="matrix" values="0 0 0 0 0.0627451 0 0 0 0 0.0941176 0 0 0 0 0.156863 0 0 0 0.04 0"/>
<feBlend mode="normal" in2="BackgroundImageFix" result="effect1_dropShadow_687_78270"/>
<feBlend mode="normal" in="SourceGraphic" in2="effect1_dropShadow_687_78270" result="shape"/>
</filter>
<filter id="filter22_d_687_78270" x="1223" y="80" width="124" height="124" filterUnits="userSpaceOnUse" color-interpolation-filters="sRGB">
<feFlood flood-opacity="0" result="BackgroundImageFix"/>
<feColorMatrix in="SourceAlpha" type="matrix" values="0 0 0 0 0 0 0 0 0 0 0 0 0 0 0 0 0 0 127 0" result="hardAlpha"/>
<feOffset dy="1"/>
<feGaussianBlur stdDeviation="1"/>
<feComposite in2="hardAlpha" operator="out"/>
<feColorMatrix type="matrix" values="0 0 0 0 0.0627451 0 0 0 0 0.0941176 0 0 0 0 0.156863 0 0 0 0.04 0"/>
<feBlend mode="normal" in2="BackgroundImageFix" result="effect1_dropShadow_687_78270"/>
<feBlend mode="normal" in="SourceGraphic" in2="effect1_dropShadow_687_78270" result="shape"/>
</filter>
<filter id="filter23_d_687_78270" x="984" y="23" width="124" height="124" filterUnits="userSpaceOnUse" color-interpolation-filters="sRGB">
<feFlood flood-opacity="0" result="BackgroundImageFix"/>
<feColorMatrix in="SourceAlpha" type="matrix" values="0 0 0 0 0 0 0 0 0 0 0 0 0 0 0 0 0 0 127 0" result="hardAlpha"/>
<feOffset dy="1"/>
<feGaussianBlur stdDeviation="1"/>
<feComposite in2="hardAlpha" operator="out"/>
<feColorMatrix type="matrix" values="0 0 0 0 0.0627451 0 0 0 0 0.0941176 0 0 0 0 0.156863 0 0 0 0.04 0"/>
<feBlend mode="normal" in2="BackgroundImageFix" result="effect1_dropShadow_687_78270"/>
<feBlend mode="normal" in="SourceGraphic" in2="effect1_dropShadow_687_78270" result="shape"/>
</filter>
<linearGradient id="paint0_linear_687_78270" x1="343.91" y1="45.7474" x2="331.622" y2="72.8016" gradientUnits="userSpaceOnUse">
<stop stop-color="#0052CC"/>
<stop offset="0.92" stop-color="#2684FF"/>
</linearGradient>
<linearGradient id="paint1_linear_687_78270" x1="1379.46" y1="271.562" x2="1414.54" y2="271.562" gradientUnits="userSpaceOnUse">
<stop stop-color="#8930FD"/>
<stop offset="1" stop-color="#49CCF9"/>
</linearGradient>
<linearGradient id="paint2_linear_687_78270" x1="1379.46" y1="271.562" x2="1414.54" y2="271.562" gradientUnits="userSpaceOnUse">
<stop stop-color="#FF02F0"/>
<stop offset="1" stop-color="#FFC800"/>
</linearGradient>
<linearGradient id="paint3_linear_687_78270" x1="726.026" y1="246.983" x2="726.026" y2="193.018" gradientUnits="userSpaceOnUse">
<stop stop-color="#0052CC"/>
<stop offset="1" stop-color="#2684FF"/>
</linearGradient>
</defs>
</svg>
